<svg width="128" height="128" viewBox="0 0 128 128" fill="none" xmlns="http://www.w3.org/2000/svg">
<g clip-path="url(#clip0_106_36)">
<path d="M106.75 0H21.25C9.51395 0 0 9.99209 0 22.318V108.754C0 121.08 9.51395 131.072 21.25 131.072H106.75C118.486 131.072 128 121.08 128 108.754V22.318C128 9.99209 118.486 0 106.75 0Z" fill="#00005B"/>
<path d="M51.4214 76.4584H31.5859L27.5499 89.3204C27.4982 89.5409 27.3772 89.7378 27.2054 89.8809C27.0337 90.024 26.8208 90.1054 26.5994 90.1125L16.4734 90.112C15.9001 90.112 15.6998 89.7894 15.8724 89.1443L33.0459 38.7077L33.2174 38.1777L33.2744 37.9965L33.3894 37.6176C33.4464 37.422 33.5034 37.2147 33.5609 36.9899C33.7859 35.8169 33.9009 34.6245 33.9044 33.4289C33.8928 33.3454 33.9004 33.2602 33.9265 33.1801C33.9526 33.1 33.9965 33.0272 34.0548 32.9675C34.1131 32.9078 34.1842 32.8628 34.2624 32.8361C34.3406 32.8094 34.4238 32.8016 34.5054 32.8135H48.1584C48.5584 32.8135 48.7874 32.9601 48.8454 33.2533L68.3369 89.2329C68.5086 89.8193 68.3369 90.1123 67.8219 90.112H56.6589C56.4673 90.1334 56.2746 90.0828 56.1167 89.9696C55.9587 89.8564 55.8463 89.6883 55.8004 89.4965L51.4214 76.4584ZM34.6774 65.6138H48.2444L48.0509 64.96L47.7404 63.9247L47.2859 62.4419L46.4134 59.6428L45.5824 56.9528L44.0364 51.9408C43.6093 50.5573 43.1993 49.1683 42.8064 47.7742L42.3674 46.189L41.8934 44.4518L41.4604 42.8405H41.3744C40.9447 44.951 40.4215 47.0404 39.8064 49.1023L39.2264 51.0085L37.8314 55.6165L37.1244 57.964C36.9968 58.3879 36.8693 58.8071 36.7419 59.2215L36.3619 60.4492L35.9839 61.6483L35.6079 62.8177L35.2339 63.958C35.0476 64.5212 34.8621 65.0731 34.6774 65.6138ZM99.9364 71.4526H83.021C83.2278 73.1664 83.7836 74.8167 84.6524 76.2967C85.6126 77.7624 86.9706 78.9086 88.5589 79.5939C90.7117 80.5483 93.0402 81.0157 95.3854 80.964C97.2461 80.9272 99.0998 80.7188 100.924 80.3415C102.555 80.1161 104.154 79.6894 105.685 79.0707C105.972 78.8369 106.115 78.9833 106.115 79.51V87.8633C106.129 88.0911 106.085 88.3184 105.986 88.5227C105.888 88.6824 105.756 88.8176 105.6 88.9185C103.901 89.6889 102.113 90.2343 100.28 90.5415C97.7891 91.0204 95.2575 91.2411 92.7234 91.2005C88.7854 91.2005 85.4659 90.5955 82.7649 89.3854L82.5049 89.2661C79.9082 88.0951 77.6149 86.3187 75.8079 84.0785C74.12 81.9678 72.8642 79.5308 72.1154 76.9126C71.3746 74.3282 70.9989 71.6485 70.9999 68.9551C70.9918 66.014 71.4411 63.0904 72.3309 60.2941C73.1878 57.5665 74.5426 55.0304 76.3234 52.8204C78.0805 50.6367 80.2772 48.867 82.7634 47.6323C85.2819 46.3728 88.2589 45.9207 91.6934 45.9207C94.5419 45.8477 97.3711 46.4181 99.9799 47.5914C102.173 48.5492 104.104 50.0425 105.604 51.9408C107.011 53.7994 108.087 55.8979 108.781 58.1396C109.457 60.2999 109.805 62.5538 109.811 64.8222C109.811 66.1125 109.769 67.2849 109.683 68.3397L109.606 69.2428L109.526 70.0999L109.479 70.5341L109.468 70.6257C109.446 70.8195 109.355 70.9982 109.212 71.1279C109.07 71.2575 108.886 71.3292 108.695 71.3292L108.46 71.3344L108.166 71.3497L107.938 71.3666L107.404 71.4132L106.935 71.4608C106.807 71.4745 106.675 71.4873 106.537 71.4992L106.112 71.5335L105.657 71.5642L105.175 71.5898L104.664 71.6119L104.397 71.6211L103.844 71.6364C103.296 71.6503 102.735 71.6154 102.16 71.5724L101.287 71.5069C100.838 71.4732 100.387 71.4551 99.9364 71.4526ZM83.0214 63.4424H94.7144L95.7104 63.4357L96.3874 63.426L96.8259 63.4158L97.3179 63.3984C97.7583 63.3533 98.1835 63.2091 98.563 62.976V62.4486C98.5461 61.7609 98.4305 61.0795 98.2199 60.4262C97.7567 58.9261 96.8253 57.6231 95.5688 56.7176C94.3124 55.812 92.8003 55.354 91.2649 55.4137C89.8198 55.3243 88.3805 55.6675 87.1225 56.4014C85.8646 57.1352 84.8423 58.228 84.1804 59.5466C83.5919 60.773 83.2005 62.0882 83.0214 63.4424Z" fill="#9999FF"/>
</g>
<defs>
<clipPath id="clip0_106_36">
<rect width="128" height="128" fill="white"/>
</clipPath>
</defs>
</svg>
