<?xml version="1.0" encoding="UTF-8"?><svg id="Lag_1" xmlns="http://www.w3.org/2000/svg" width="52.65" height="56.57" viewBox="0 0 52.65 56.57"><defs><style>.cls-1{fill:#363636;stroke-width:0px;}</style></defs><g id="check"><path class="cls-1" d="M6.18,22.69v14.44c0,2.41,0,4.81,0,7.22,0,2.13-.33,4.58.22,6.65,1.01,3.84,6.39,4.36,9.62,4.85,4.43.68,8.92.79,13.4.67,2.27-.07,4.55-.19,6.82-.32,1.71-.1,3.45-.27,4.12-2.1.72-1.97.76-4.42,1.01-6.49.28-2.36.48-4.73.62-7.1.28-4.72.3-9.45.01-14.17-.12-2.05-.32-4.12-.8-6.12-.38-1.59-.86-3.82-2.51-4.56-1.04-.47-2.25-.13-3.33.04-1.31.21-2.62.43-3.93.64-2.62.43-5.25.85-7.87,1.28-5.41.88-10.82,1.76-16.23,2.63-1.43.23-.82,2.4.6,2.17,8.28-1.34,16.56-2.69,24.83-4.03.98-.16,1.97-.32,2.95-.48,1.16-.19,2.15-.53,2.68.76.72,1.77,1.02,3.76,1.2,5.64.4,4.07.42,8.2.31,12.28s-.42,8.18-.94,12.24c-.14,1.12-.3,2.23-.48,3.35-.06.37-.07.85-.26,1.18-.28.49-.76.51-1.28.56-1.95.17-3.92.22-5.87.3-3.91.15-7.83.18-11.73-.2-2.07-.2-4.13-.52-6.16-1-1.43-.33-3.67-.65-4.43-2.11-.5-.96-.32-2.29-.32-3.33v-3.49c0-2.32,0-4.65,0-6.97v-14.44c0-1.45-2.25-1.45-2.25,0h0Z"/><path class="cls-1" d="M.72,34.74c8.46,5.04,15.78,11.86,21.36,19.98.74,1.07,2.33.91,2.74-.36,4.73-14.57,9.64-29.5,18.68-42.06,2.55-3.55,5.46-6.82,8.68-9.78,1.43-1.31-.7-3.42-2.12-2.12-11.76,10.78-18.55,25.55-23.82,40.34-1.52,4.25-2.92,8.53-4.31,12.82l2.74-.36c-5.87-8.55-13.52-15.75-22.43-21.06-1.66-.99-3.17,1.6-1.51,2.59h0Z"/></g></svg>