<?xml version="1.0" encoding="UTF-8"?><svg id="Lag_1" xmlns="http://www.w3.org/2000/svg" width="42.25" height="27.45" viewBox="0 0 42.25 27.45"><defs><style>.cls-1{fill:#363636;stroke-width:0px;}</style></defs><g id="contact"><path class="cls-1" d="M0,4.83c-.04,4.41.13,8.81.55,13.2.2,2.05.44,4.09.74,6.13.27,1.81.96,2.97,2.9,3.12,4.36.33,8.85.12,13.22-.04s8.68-.47,13-.93c2.14-.23,4.28-.49,6.41-.78,1.49-.2,4.06-.08,5.01-1.5.4-.6.41-1.34.41-2.03,0-1.15-.02-2.3-.05-3.45-.06-2.22-.15-4.43-.28-6.64s-.3-4.26-.5-6.38c-.15-1.56-.22-3.28-1.84-4.02-.78-.35-1.72-.39-2.56-.51-1.07-.14-2.14-.27-3.22-.38-2.19-.22-4.39-.35-6.59-.44C22.43,0,17.65-.05,12.89.05,8.73.14,4.5.64.92,2.92c-1.22.77-.09,2.72,1.14,1.94,2.83-1.79,6.07-2.35,9.36-2.51,3.53-.17,7.1-.09,10.63-.05,3.75.05,7.51.17,11.25.52.97.09,1.95.2,2.92.32.67.09,1.67.06,2.3.36.77.37.62,1.77.69,2.51.09.98.18,1.96.25,2.94.29,3.77.46,7.54.52,11.32.01.68.32,2.11-.26,2.56-.37.29-1.82.28-2.28.35-2.01.29-4.03.54-6.05.77-7.5.83-15.04,1.22-22.59,1.17-1.07,0-2.13-.02-3.2-.05-.4,0-.83.02-1.23-.03-.75-.1-.7-.24-.85-.99-.41-2.13-.58-4.34-.77-6.5-.39-4.23-.55-8.47-.51-12.72C2.27,3.38.02,3.38,0,4.83H0Z"/><path class="cls-1" d="M2.14,5.86c3.03,2.49,6.12,4.89,9.29,7.2,1.66,1.21,3.35,2.39,5.05,3.54,1.37.92,2.82,2.13,4.51,2.35s2.98-.78,4.16-1.85c1.54-1.38,3.06-2.79,4.59-4.19,3.12-2.85,6.24-5.69,9.36-8.54,1.07-.98-.52-2.57-1.59-1.59-2.69,2.46-5.38,4.91-8.07,7.37-1.35,1.23-2.69,2.46-4.04,3.68-1.12,1.02-2.82,3.3-4.52,2.79-1.5-.45-2.96-1.76-4.24-2.64-1.44-.98-2.86-1.99-4.26-3.02-2.95-2.15-5.83-4.39-8.64-6.7-1.11-.91-2.71.67-1.59,1.59h0Z"/></g></svg>