<?xml version="1.0" encoding="UTF-8"?><svg id="Lag_1" xmlns="http://www.w3.org/2000/svg" width="37.06" height="45.04" viewBox="0 0 37.06 45.04"><defs><style>.cls-1{fill:#363636;stroke-width:0px;}</style></defs><g id="cv"><path class="cls-1" d="M6.44,6.56c-.41,7.08-.27,15.91,5.75,20.83,2.97,2.43,6.86,2.99,10.1.72s5.33-5.94,6.91-9.38c1.97-4.31,3.06-8.94,3.22-13.67.02-.62-.53-1.11-1.12-1.12-4.54-.12-8.74,1.6-13.08,2.66-3.79.92-8.04,1.18-11.33-1.25l.23,1.77c3.62-3.03,8.47-4.2,13.07-4.69,3.94-.42,8.54-.29,11.35,2.92.95,1.09,2.54-.5,1.59-1.59C29.92.09,24.7-.32,20.17.16c-5.25.56-10.54,1.89-14.66,5.35-.61.51-.3,1.38.23,1.77,7.85,5.79,17.2-1.31,25.55-1.1l-1.12-1.12c-.16,4.68-1.29,9.31-3.38,13.51-1.67,3.36-4.53,8.65-8.86,8.8s-7.33-4.72-8.4-8.39c-1.17-4.02-1.08-8.28-.84-12.42.08-1.45-2.17-1.44-2.25,0h0Z"/><path class="cls-1" d="M14.62,29.04v8.23c0,1.45,2.25,1.45,2.25,0v-8.23c0-1.45-2.25-1.45-2.25,0h0Z"/><path class="cls-1" d="M18.46,29.31v7.4c0,.59.52,1.15,1.12,1.12s1.12-.49,1.12-1.12v-7.4c0-.59-.52-1.15-1.12-1.12s-1.12.49-1.12,1.12h0Z"/><path class="cls-1" d="M15.74,36.68c-1.79.17-3.67-.36-5.39.33-1.27.51-2.44,1.58-2.54,3.01-.24,3.24,4.19,4.37,6.63,4.76,3.13.51,6.4.24,9.38-.88,1.48-.56,2.9-1.29,4.17-2.23,1.15-.85,2.43-2.04,2.05-3.64-.41-1.71-2.45-2.25-3.94-2.52-2.11-.38-4.24-.28-6.31.26-1.4.37-.81,2.54.6,2.17,1.67-.44,3.41-.56,5.11-.26.61.11,1.66.19,2.12.64.43.43-.02.77-.4,1.11-2.08,1.83-5.01,2.89-7.72,3.23s-5.64.05-8.11-1.12c-.45-.21-1.14-.54-1.3-1.07-.17-.56.35-1.01.78-1.25,1.39-.78,3.35-.17,4.87-.31,1.43-.13,1.44-2.39,0-2.25h0Z"/><path class="cls-1" d="M32.12,11.2c.19-.64.5-1.23.96-1.72.25-.26.74-.72,1.13-.54.36.17.51.77.56,1.13.1.65-.01,1.33-.21,1.95-.42,1.28-1.36,2.31-2.37,3.16-1.11.94-2.4,1.77-3.78,2.25-.57.2-.95.77-.79,1.38.15.56.81.99,1.38.79,1.58-.55,2.98-1.42,4.29-2.44,1.18-.92,2.27-2.03,2.94-3.37.72-1.43,1.05-3.11.61-4.68s-1.75-2.73-3.42-2.38c-1.79.37-2.99,2.23-3.49,3.87-.42,1.39,1.75,1.98,2.17.6h0Z"/><path class="cls-1" d="M7.93,11.65c-.96-1.27-2.13-2.82-3.61-3.51-1.7-.8-3.5-.05-4.04,1.76-.45,1.5-.32,3.33.03,4.83s1.1,2.97,2.22,4.05c1.42,1.37,3.25,1.91,5.2,1.92,1.45,0,1.45-2.25,0-2.25s-2.75-.36-3.77-1.43c-.96-1.01-1.48-2.39-1.62-3.77-.07-.74-.09-1.53,0-2.25.05-.38.12-.9.53-.96.57-.09,1.17.61,1.52.96.57.56,1.11,1.15,1.6,1.79.37.48.97.74,1.54.4.48-.28.77-1.05.4-1.54h0Z"/></g></svg>