<?xml version="1.0" encoding="UTF-8"?><svg id="Lag_1" xmlns="http://www.w3.org/2000/svg" width="206.06" height="31.34" viewBox="0 0 206.06 31.34"><defs><style>.cls-1{fill:#363636;stroke-width:0px;}</style></defs><g id="dansk"><g id="farvet"><path class="cls-1" d="M174.89,26.89l.19-1.29-1.65.67c.79.49,1.62.85,2.52,1.12.74.22,1.38-.38,1.42-1.08.08-1.19.16-2.39.24-3.58l-1.69.97c.62.45,1.24.9,1.86,1.34.54.39,1.55.01,1.65-.67.31-2.16.23-4.23-.32-6.35l-1.88,1.09,3.75,3.96c.73.77,1.83.12,1.92-.8.15-1.54.19-3.08.1-4.63l-1.42,1.08c.7.27,1.32.64,1.93,1.07.56.4,1.53,0,1.65-.67.23-1.24.24-2.42.04-3.67l-2.17.6.73,1.9,2.06-.87c-1.94-3.58-4.71-6.57-8.11-8.82l-1.14,1.94c5.3,2.39,9.06,6.93,11.52,12.1l1.27-1.65c-2.55-.94-5.32-.94-7.87-.01-1.18.43-1.01,2.16.3,2.21,1.2.05,2.26-.34,3.33-.85s2.3-1.32,3.56-.97,2.15,1.65,2.84,2.68c.79,1.19,1.56,2.38,2.7,3.27.81.63,2.24.09,1.88-1.09-1.73-5.62-4.5-10.79-8.19-15.36-.79-.98-2.02.13-1.88,1.09.22,1.5.44,3.01.67,4.51l1.65-1.27c-1.32-.88-2.27-2.04-2.95-3.47l-1.77,1.36c2.43,2.16,4.72,4.48,6.85,6.93.72.83,1.81.07,1.92-.8.42-3.16.12-6.33-.85-9.36l-2.17.6,2.99,7.11c.55,1.3,2.49.86,2.17-.6-.39-1.77-.77-3.54-1.16-5.32l-.63-2.9c-.15-.69-.21-1.57-.62-2.16-.8-1.15-2.04-.66-2.84.18-1.31,1.36-2.56,2.79-3.84,4.18l1.92.8c.11-1.6.87-2.9,2.1-3.9h-1.59c.34.41.67.82,1.01,1.24.48.58,1.42.33,1.77-.23.87-1.39,1.66-2.82,2.39-4.28l-2.06-.27c.54,2.01.79,4.02.75,6.1-.03,1.48,2.08,1.4,2.25,0l.35-2.88h-2.25c-.1,2.75-.17,5.65.27,8.38s3.55,1.62,5.4,1.41l-.3-2.21c-.27.07-.54.13-.8.2-.98.24-1.06,1.56-.27,2.06,1.21.77,2.5,1.16,3.92,1.27.93.07,1.54-1.31.8-1.92-1.04-.85-2.16-1.3-3.51-1.28v2.25l2.73-.04-.3-2.21c-5.97,1.02-15.19-1.82-18.43,5.34-.24.54-.18,1.23.4,1.54l1.5.79.27-2.06-5.14,2.07,1.09,1.88c1.65-1.81,2.91-3.84,3.82-6.12.13-.33,0-.88-.29-1.09l-1.32-1.03c-1.13-.88-2.73.7-1.59,1.59l1.32,1.03-.29-1.09c-.76,1.9-1.86,3.61-3.24,5.12-.69.75-.02,2.33,1.09,1.88l5.14-2.07c.83-.33,1.21-1.56.27-2.06l-1.5-.79.4,1.54c1.18-2.61,4-3.72,6.71-3.99,3.46-.34,6.92.28,10.37-.31,1.26-.22.95-2.23-.3-2.21l-2.73.04c-1.45.02-1.45,2.27,0,2.25.72,0,1.35.16,1.92.62l.8-1.92c-1.03-.08-1.91-.4-2.79-.96l-.27,2.06c.27-.07.54-.13.8-.2,1.2-.29.98-2.36-.3-2.21-.96.11-1.92.24-2.88.34-.18.02-.37.04-.55.05.3.3.37.2.2-.31.07-.43-.08-1-.11-1.43-.13-2.06-.15-4.13-.08-6.2.05-1.48-2.08-1.4-2.25,0l-.35,2.88h2.25c.04-2.27-.24-4.51-.83-6.7-.24-.89-1.62-1.16-2.06-.27-.73,1.47-1.52,2.89-2.39,4.28l1.77-.23c-.34-.41-.67-.82-1.01-1.24-.41-.5-1.16-.35-1.59,0-1.69,1.38-2.61,3.33-2.76,5.49-.06.97,1.28,1.49,1.92.8.72-.79,1.45-1.57,2.17-2.36.2-.22,1.6-2.02,1.82-2.01l-.8-.33c.33.35.34,1.5.45,1.99l.58,2.66,1.11,5.08,2.17-.6-2.99-7.11c-.54-1.29-2.62-.82-2.17.6.92,2.86,1.16,5.79.77,8.76l1.92-.8c-2.13-2.46-4.42-4.77-6.85-6.93-.98-.87-2.31.21-1.77,1.36.84,1.78,2.12,3.19,3.76,4.28.91.6,1.78-.39,1.65-1.27-.22-1.5-.44-3.01-.67-4.51l-1.88,1.09c3.44,4.26,6.01,9.14,7.61,14.37l1.88-1.09c-2.37-1.86-3.16-5.31-6.19-6.42-1.31-.48-2.63-.27-3.89.26s-2.49,1.42-3.94,1.36l.3,2.21c2.23-.81,4.45-.81,6.68.01,1.01.37,1.65-.85,1.27-1.65-2.6-5.48-6.72-10.38-12.32-12.91-1.3-.59-2.36,1.13-1.14,1.94,3.08,2.03,5.55,4.77,7.3,8.01.59,1.1,2.52.34,2.06-.87l-.73-1.9c-.52-1.36-2.4-.83-2.17.6.13.83.12,1.65-.04,2.48l1.65-.67c-.78-.55-1.58-.95-2.47-1.3-.67-.26-1.46.41-1.42,1.08.08,1.55.05,3.09-.1,4.63l1.92-.8-3.75-3.96c-.79-.83-2.16.03-1.88,1.09.44,1.69.57,3.41.32,5.15l1.65-.67-1.86-1.34c-.75-.54-1.64.2-1.69.97-.08,1.19-.16,2.39-.24,3.58l1.42-1.08c-.72-.21-1.35-.5-1.98-.89-.56-.35-1.55-.05-1.65.67l-.19,1.29c-.21,1.42,1.96,2.03,2.17.6h0Z"/><path class="cls-1" d="M171.7,8.36c8.64,7.21,16.94,14.81,24.89,22.78.43.43,1.35.14,1.28-.53-.49-5.02-1.02-10.03-1.6-15.04-.29-2.54-.6-5.08-.92-7.62-.14-1.15-.29-2.29-.44-3.44-.12-.92-.17-1.92-.55-2.78-1.9-4.27-6.43,2.4-7.76,3.94-2.91,3.37-5.69,6.86-8.35,10.43-3.2,4.3-6.21,8.74-9.05,13.29-.32.52.22,1.35.85,1.1,11.83-4.65,23.66-9.29,35.48-13.94.67-.26.75-1.21,0-1.45-10.8-3.37-21.7-6.67-32.87-8.56-.94-.16-1.35,1.29-.4,1.45,11.17,1.89,22.07,5.2,32.87,8.56v-1.45c-11.83,4.65-23.66,9.29-35.48,13.94l.85,1.1c4.36-7.01,9.15-13.75,14.4-20.13,1.24-1.51,2.51-3.01,3.8-4.48.64-.73,1.29-1.46,1.95-2.19.28-.3.55-.69.87-.94.27-.2.96-.57,1.33-.37.15.08.24.54.28.7.58,2.02.62,4.35.87,6.44s.52,4.26.77,6.4c.58,5.01,1.11,10.02,1.6,15.04l1.28-.53c-7.95-7.96-16.25-15.57-24.89-22.78-.74-.61-1.8.44-1.06,1.06h0Z"/></g><g id="farvet-2"><path class="cls-1" d="M131.89,26.89l.19-1.29-1.65.67c.79.49,1.62.85,2.52,1.12.74.22,1.38-.38,1.42-1.08.08-1.19.16-2.39.24-3.58l-1.69.97,1.86,1.34c.54.39,1.55.01,1.65-.67.31-2.16.23-4.23-.32-6.35l-1.88,1.09,3.75,3.96c.73.77,1.83.12,1.92-.8.15-1.54.19-3.08.1-4.63l-1.42,1.08c.7.27,1.32.64,1.93,1.07.56.4,1.53,0,1.65-.67.23-1.24.24-2.42.04-3.67l-2.17.6.73,1.9,2.06-.87c-1.94-3.58-4.71-6.57-8.11-8.82l-1.14,1.94c5.3,2.39,9.06,6.93,11.52,12.1l1.27-1.65c-2.55-.94-5.32-.94-7.87-.01-1.18.43-1.01,2.16.3,2.21,1.2.05,2.26-.34,3.33-.85s2.3-1.32,3.56-.97,2.15,1.65,2.84,2.68c.79,1.19,1.56,2.38,2.7,3.27.81.63,2.24.09,1.88-1.09-1.73-5.62-4.5-10.79-8.19-15.36-.79-.98-2.02.13-1.88,1.09.22,1.5.44,3.01.67,4.51l1.65-1.27c-1.32-.88-2.27-2.04-2.95-3.47l-1.77,1.36c2.43,2.16,4.72,4.48,6.85,6.93.72.83,1.81.07,1.92-.8.42-3.16.12-6.33-.85-9.36l-2.17.6,2.99,7.11c.55,1.3,2.49.86,2.17-.6-.39-1.77-.77-3.54-1.16-5.32l-.63-2.9c-.15-.69-.21-1.57-.62-2.16-.8-1.15-2.04-.66-2.84.18-1.31,1.36-2.56,2.79-3.84,4.18l1.92.8c.11-1.6.87-2.9,2.1-3.9h-1.59c.34.41.67.82,1.01,1.24.48.58,1.42.33,1.77-.23.87-1.39,1.66-2.82,2.39-4.28l-2.06-.27c.54,2.01.79,4.02.75,6.1-.03,1.48,2.08,1.4,2.25,0l.35-2.88h-2.25c-.1,2.75-.17,5.65.27,8.38s3.55,1.62,5.4,1.41l-.3-2.21c-.27.07-.54.13-.8.2-.98.24-1.06,1.56-.27,2.06,1.21.77,2.5,1.16,3.92,1.27.93.07,1.54-1.31.8-1.92-1.04-.85-2.16-1.3-3.51-1.28v2.25l2.73-.04-.3-2.21c-5.97,1.02-15.19-1.82-18.43,5.34-.24.54-.18,1.23.4,1.54l1.5.79.27-2.06-5.14,2.07,1.09,1.88c1.65-1.81,2.91-3.84,3.82-6.12.13-.33,0-.88-.29-1.09l-1.32-1.03c-1.13-.88-2.73.7-1.59,1.59l1.32,1.03-.29-1.09c-.76,1.9-1.86,3.61-3.24,5.12-.69.75-.02,2.33,1.09,1.88l5.14-2.07c.83-.33,1.21-1.56.27-2.06l-1.5-.79.4,1.54c1.18-2.61,4-3.72,6.71-3.99,3.46-.34,6.92.28,10.37-.31,1.26-.22.95-2.23-.3-2.21l-2.73.04c-1.45.02-1.45,2.27,0,2.25.72,0,1.35.16,1.92.62l.8-1.92c-1.03-.08-1.91-.4-2.79-.96l-.27,2.06c.27-.07.54-.13.8-.2,1.2-.29.98-2.36-.3-2.21-.96.11-1.92.24-2.88.34-.18.02-.37.04-.55.05.3.3.37.2.2-.31.07-.43-.08-1-.11-1.43-.13-2.06-.15-4.13-.08-6.2.05-1.48-2.08-1.4-2.25,0l-.35,2.88h2.25c.04-2.27-.24-4.51-.83-6.7-.24-.89-1.62-1.16-2.06-.27-.73,1.47-1.52,2.89-2.39,4.28l1.77-.23c-.34-.41-.67-.82-1.01-1.24-.41-.5-1.16-.35-1.59,0-1.69,1.38-2.61,3.33-2.76,5.49-.06.97,1.28,1.49,1.92.8.72-.79,1.45-1.57,2.17-2.36.2-.22,1.6-2.02,1.82-2.01l-.8-.33c.33.35.34,1.5.45,1.99l.58,2.66,1.11,5.08,2.17-.6-2.99-7.11c-.54-1.29-2.62-.82-2.17.6.92,2.86,1.16,5.79.77,8.76l1.92-.8c-2.13-2.46-4.42-4.77-6.85-6.93-.98-.87-2.31.21-1.77,1.36.84,1.78,2.12,3.19,3.76,4.28.91.6,1.78-.39,1.65-1.27-.22-1.5-.44-3.01-.67-4.51l-1.88,1.09c3.44,4.26,6.01,9.14,7.61,14.37l1.88-1.09c-2.37-1.86-3.16-5.31-6.19-6.42-1.31-.48-2.63-.27-3.89.26s-2.49,1.42-3.94,1.36l.3,2.21c2.23-.81,4.45-.81,6.68.01,1.01.37,1.65-.85,1.27-1.65-2.6-5.48-6.72-10.38-12.32-12.91-1.3-.59-2.36,1.13-1.14,1.94,3.08,2.03,5.55,4.77,7.3,8.01.59,1.1,2.52.34,2.06-.87l-.73-1.9c-.52-1.36-2.4-.83-2.17.6.13.83.12,1.65-.04,2.48l1.65-.67c-.78-.55-1.58-.95-2.47-1.3-.67-.26-1.46.41-1.42,1.08.08,1.55.05,3.09-.1,4.63l1.92-.8-3.75-3.96c-.79-.83-2.16.03-1.88,1.09.44,1.69.57,3.41.32,5.15l1.65-.67-1.86-1.34c-.75-.54-1.64.2-1.69.97-.08,1.19-.16,2.39-.24,3.58l1.42-1.08c-.72-.21-1.35-.5-1.98-.89-.56-.35-1.55-.05-1.65.67l-.19,1.29c-.21,1.42,1.96,2.03,2.17.6h0Z"/><path class="cls-1" d="M128.7,8.36c8.64,7.21,16.94,14.81,24.89,22.78.43.43,1.35.14,1.28-.53-.49-5.02-1.02-10.03-1.6-15.04-.29-2.54-.6-5.08-.92-7.62-.14-1.15-.29-2.29-.44-3.44-.12-.92-.17-1.92-.55-2.78-1.9-4.27-6.43,2.4-7.76,3.94-2.91,3.37-5.69,6.86-8.35,10.43-3.2,4.3-6.21,8.74-9.05,13.29-.32.52.22,1.35.85,1.1,11.83-4.65,23.66-9.29,35.48-13.94.67-.26.75-1.21,0-1.45-10.8-3.37-21.7-6.67-32.87-8.56-.94-.16-1.35,1.29-.4,1.45,11.17,1.89,22.07,5.2,32.87,8.56v-1.45c-11.83,4.65-23.66,9.29-35.48,13.94l.85,1.1c4.36-7.01,9.15-13.75,14.4-20.13,1.24-1.51,2.51-3.01,3.8-4.48.64-.73,1.29-1.46,1.95-2.19.28-.3.55-.69.87-.94.27-.2.96-.57,1.33-.37.15.08.24.54.28.7.58,2.02.62,4.35.87,6.44s.52,4.26.77,6.4c.58,5.01,1.11,10.02,1.6,15.04l1.28-.53c-7.95-7.96-16.25-15.57-24.89-22.78-.74-.61-1.8.44-1.06,1.06h0Z"/></g><g id="farvet-3"><path class="cls-1" d="M5.78,26.57l.19-1.29-1.65.67c.79.49,1.62.85,2.52,1.12.74.22,1.38-.38,1.42-1.08.08-1.19.16-2.39.24-3.58l-1.69.97,1.86,1.34c.54.39,1.55.01,1.65-.67.31-2.16.23-4.23-.32-6.35l-1.88,1.09,3.75,3.96c.73.77,1.83.12,1.92-.8.15-1.54.19-3.08.1-4.63l-1.42,1.08c.7.27,1.32.64,1.93,1.07.56.4,1.53,0,1.65-.67.23-1.24.24-2.42.04-3.67l-2.17.6.73,1.9,2.06-.87c-1.94-3.58-4.71-6.57-8.11-8.82l-1.14,1.94c5.3,2.39,9.06,6.93,11.52,12.1l1.27-1.65c-2.55-.94-5.32-.94-7.87-.01-1.18.43-1.01,2.16.3,2.21,1.2.05,2.26-.34,3.33-.85s2.3-1.32,3.56-.97,2.15,1.65,2.84,2.68c.79,1.19,1.56,2.38,2.7,3.27.81.63,2.24.09,1.88-1.09-1.73-5.62-4.5-10.79-8.19-15.36-.79-.98-2.02.13-1.88,1.09.22,1.5.44,3.01.67,4.51l1.65-1.27c-1.32-.88-2.27-2.04-2.95-3.47l-1.77,1.36c2.43,2.16,4.72,4.48,6.85,6.93.72.83,1.81.07,1.92-.8.42-3.16.12-6.33-.85-9.36l-2.17.6,2.99,7.11c.55,1.3,2.49.86,2.17-.6-.39-1.77-.77-3.54-1.16-5.32l-.63-2.9c-.15-.69-.21-1.57-.62-2.16-.8-1.15-2.04-.66-2.84.18-1.31,1.36-2.56,2.79-3.84,4.18l1.92.8c.11-1.6.87-2.9,2.1-3.9h-1.59c.34.41.67.82,1.01,1.24.48.58,1.42.33,1.77-.23.87-1.39,1.66-2.82,2.39-4.28l-2.06-.27c.54,2.01.79,4.02.75,6.1-.03,1.48,2.08,1.4,2.25,0l.35-2.88h-2.25c-.1,2.75-.17,5.65.27,8.38s3.55,1.62,5.4,1.41l-.3-2.21c-.27.07-.54.13-.8.2-.98.24-1.06,1.56-.27,2.06,1.21.77,2.5,1.16,3.92,1.27.93.07,1.54-1.31.8-1.92-1.04-.85-2.16-1.3-3.51-1.28v2.25l2.73-.04-.3-2.21c-5.97,1.02-15.19-1.82-18.43,5.34-.24.54-.18,1.23.4,1.54l1.5.79.27-2.06-5.14,2.07,1.09,1.88c1.65-1.81,2.91-3.84,3.82-6.12.13-.33,0-.88-.29-1.09l-1.32-1.03c-1.13-.88-2.73.7-1.59,1.59l1.32,1.03-.29-1.09c-.76,1.9-1.86,3.61-3.24,5.12-.69.75-.02,2.33,1.09,1.88l5.14-2.07c.83-.33,1.21-1.56.27-2.06l-1.5-.79.4,1.54c1.18-2.61,4-3.72,6.71-3.99,3.46-.34,6.92.28,10.37-.31,1.26-.22.95-2.23-.3-2.21l-2.73.04c-1.45.02-1.45,2.27,0,2.25.72,0,1.35.16,1.92.62l.8-1.92c-1.03-.08-1.91-.4-2.79-.96l-.27,2.06c.27-.07.54-.13.8-.2,1.2-.29.98-2.36-.3-2.21-.96.11-1.92.24-2.88.34-.18.02-.37.04-.55.05.3.3.37.2.2-.31.07-.43-.08-1-.11-1.43-.13-2.06-.15-4.13-.08-6.2.05-1.48-2.08-1.4-2.25,0l-.35,2.88h2.25c.04-2.27-.24-4.51-.83-6.7-.24-.89-1.62-1.16-2.06-.27-.73,1.47-1.52,2.89-2.39,4.28l1.77-.23c-.34-.41-.67-.82-1.01-1.24-.41-.5-1.16-.35-1.59,0-1.69,1.38-2.61,3.33-2.76,5.49-.06.97,1.28,1.49,1.92.8.72-.79,1.45-1.57,2.17-2.36.2-.22,1.6-2.02,1.82-2.01l-.8-.33c.33.35.34,1.5.45,1.99l.58,2.66,1.11,5.08,2.17-.6-2.99-7.11c-.54-1.29-2.62-.82-2.17.6.92,2.86,1.16,5.79.77,8.76l1.92-.8c-2.13-2.46-4.42-4.77-6.85-6.93-.98-.87-2.31.21-1.77,1.36.84,1.78,2.12,3.19,3.76,4.28.91.6,1.78-.39,1.65-1.27-.22-1.5-.44-3.01-.67-4.51l-1.88,1.09c3.44,4.26,6.01,9.14,7.61,14.37l1.88-1.09c-2.37-1.86-3.16-5.31-6.19-6.42-1.31-.48-2.63-.27-3.89.26s-2.49,1.42-3.94,1.36l.3,2.21c2.23-.81,4.45-.81,6.68.01,1.01.37,1.65-.85,1.27-1.65-2.6-5.48-6.72-10.38-12.32-12.91-1.3-.59-2.36,1.13-1.14,1.94,3.08,2.03,5.55,4.77,7.3,8.01.59,1.1,2.52.34,2.06-.87l-.73-1.9c-.52-1.36-2.4-.83-2.17.6.13.83.12,1.65-.04,2.48l1.65-.67c-.78-.55-1.58-.95-2.47-1.3-.67-.26-1.46.41-1.42,1.08.08,1.55.05,3.09-.1,4.63l1.92-.8-3.75-3.96c-.79-.83-2.16.03-1.88,1.09.44,1.69.57,3.41.32,5.15l1.65-.67-1.86-1.34c-.75-.54-1.64.2-1.69.97-.08,1.19-.16,2.39-.24,3.58l1.42-1.08c-.72-.21-1.35-.5-1.98-.89-.56-.35-1.55-.05-1.65.67l-.19,1.29c-.21,1.42,1.96,2.03,2.17.6h0Z"/><path class="cls-1" d="M2.6,8.04c8.64,7.21,16.94,14.81,24.89,22.78.43.43,1.35.14,1.28-.53-.49-5.02-1.02-10.03-1.6-15.04-.29-2.54-.6-5.08-.92-7.62-.14-1.15-.29-2.29-.44-3.44-.12-.92-.17-1.92-.55-2.78-1.9-4.27-6.43,2.4-7.76,3.94-2.91,3.37-5.69,6.86-8.35,10.43C5.94,20.08,2.93,24.52.1,29.07c-.32.52.22,1.35.85,1.1,11.83-4.65,23.66-9.29,35.48-13.94.67-.26.75-1.21,0-1.45C25.63,11.42,14.73,8.12,3.56,6.22c-.94-.16-1.35,1.29-.4,1.45,11.17,1.89,22.07,5.2,32.87,8.56v-1.45C24.2,19.43,12.37,24.08.54,28.73l.85,1.1c4.36-7.01,9.15-13.75,14.4-20.13,1.24-1.51,2.51-3.01,3.8-4.48.64-.73,1.29-1.46,1.95-2.19.28-.3.55-.69.87-.94.27-.2.96-.57,1.33-.37.15.08.24.54.28.7.58,2.02.62,4.35.87,6.44s.52,4.26.77,6.4c.58,5.01,1.11,10.02,1.6,15.04l1.28-.53C20.6,21.79,12.3,14.19,3.66,6.98c-.74-.61-1.8.44-1.06,1.06h0Z"/></g><g id="farvet-4"><path class="cls-1" d="M89.89,26.89l.19-1.29-1.65.67c.79.49,1.62.85,2.52,1.12.74.22,1.38-.38,1.42-1.08.08-1.19.16-2.39.24-3.58l-1.69.97,1.86,1.34c.54.39,1.55.01,1.65-.67.31-2.16.23-4.23-.32-6.35l-1.88,1.09,3.75,3.96c.73.77,1.83.12,1.92-.8.15-1.54.19-3.08.1-4.63l-1.42,1.08c.7.27,1.32.64,1.93,1.07.56.4,1.53,0,1.65-.67.23-1.24.24-2.42.04-3.67l-2.17.6.73,1.9,2.06-.87c-1.94-3.58-4.71-6.57-8.11-8.82l-1.14,1.94c5.3,2.39,9.06,6.93,11.52,12.1l1.27-1.65c-2.55-.94-5.32-.94-7.87-.01-1.18.43-1.01,2.16.3,2.21,1.2.05,2.26-.34,3.33-.85s2.3-1.32,3.56-.97,2.15,1.65,2.84,2.68c.79,1.19,1.56,2.38,2.7,3.27.81.63,2.24.09,1.88-1.09-1.73-5.62-4.5-10.79-8.19-15.36-.79-.98-2.02.13-1.88,1.09.22,1.5.44,3.01.67,4.51l1.65-1.27c-1.32-.88-2.27-2.04-2.95-3.47l-1.77,1.36c2.43,2.16,4.72,4.48,6.85,6.93.72.83,1.81.07,1.92-.8.42-3.16.12-6.33-.85-9.36l-2.17.6,2.99,7.11c.55,1.3,2.49.86,2.17-.6-.39-1.77-.77-3.54-1.16-5.32l-.63-2.9c-.15-.69-.21-1.57-.62-2.16-.8-1.15-2.04-.66-2.84.18-1.31,1.36-2.56,2.79-3.84,4.18l1.92.8c.11-1.6.87-2.9,2.1-3.9h-1.59c.34.41.67.82,1.01,1.24.48.58,1.42.33,1.77-.23.87-1.39,1.66-2.82,2.39-4.28l-2.06-.27c.54,2.01.79,4.02.75,6.1-.03,1.48,2.08,1.4,2.25,0l.35-2.88h-2.25c-.1,2.75-.17,5.65.27,8.38s3.55,1.62,5.4,1.41l-.3-2.21c-.27.07-.54.13-.8.2-.98.24-1.06,1.56-.27,2.06,1.21.77,2.5,1.16,3.92,1.27.93.07,1.54-1.31.8-1.92-1.04-.85-2.16-1.3-3.51-1.28v2.25l2.73-.04-.3-2.21c-5.97,1.02-15.19-1.82-18.43,5.34-.24.54-.18,1.23.4,1.54l1.5.79.27-2.06-5.14,2.07,1.09,1.88c1.65-1.81,2.91-3.84,3.82-6.12.13-.33,0-.88-.29-1.09l-1.32-1.03c-1.13-.88-2.73.7-1.59,1.59l1.32,1.03-.29-1.09c-.76,1.9-1.86,3.61-3.24,5.12-.69.75-.02,2.33,1.09,1.88l5.14-2.07c.83-.33,1.21-1.56.27-2.06l-1.5-.79.4,1.54c1.18-2.61,4-3.72,6.71-3.99,3.46-.34,6.92.28,10.37-.31,1.26-.22.95-2.23-.3-2.21l-2.73.04c-1.45.02-1.45,2.27,0,2.25.72,0,1.35.16,1.92.62l.8-1.92c-1.03-.08-1.91-.4-2.79-.96l-.27,2.06c.27-.07.54-.13.8-.2,1.2-.29.98-2.36-.3-2.21-.96.11-1.92.24-2.88.34-.18.02-.37.04-.55.05.3.3.37.2.2-.31.07-.43-.08-1-.11-1.43-.13-2.06-.15-4.13-.08-6.2.05-1.48-2.08-1.4-2.25,0l-.35,2.88h2.25c.04-2.27-.24-4.51-.83-6.7-.24-.89-1.62-1.16-2.06-.27-.73,1.47-1.52,2.89-2.39,4.28l1.77-.23c-.34-.41-.67-.82-1.01-1.24-.41-.5-1.16-.35-1.59,0-1.69,1.38-2.61,3.33-2.76,5.49-.06.97,1.28,1.49,1.92.8.72-.79,1.45-1.57,2.17-2.36.2-.22,1.6-2.02,1.82-2.01l-.8-.33c.33.35.34,1.5.45,1.99l.58,2.66,1.11,5.08,2.17-.6-2.99-7.11c-.54-1.29-2.62-.82-2.17.6.92,2.86,1.16,5.79.77,8.76l1.92-.8c-2.13-2.46-4.42-4.77-6.85-6.93-.98-.87-2.31.21-1.77,1.36.84,1.78,2.12,3.19,3.76,4.28.91.6,1.78-.39,1.65-1.27l-.67-4.51-1.88,1.09c3.44,4.26,6.01,9.14,7.61,14.37l1.88-1.09c-2.37-1.86-3.16-5.31-6.19-6.42-1.31-.48-2.63-.27-3.89.26s-2.49,1.42-3.94,1.36l.3,2.21c2.23-.81,4.45-.81,6.68.01,1.01.37,1.65-.85,1.27-1.65-2.6-5.48-6.72-10.38-12.32-12.91-1.3-.59-2.36,1.13-1.14,1.94,3.08,2.03,5.55,4.77,7.3,8.01.59,1.1,2.52.34,2.06-.87l-.73-1.9c-.52-1.36-2.4-.83-2.17.6.13.83.12,1.65-.04,2.48l1.65-.67c-.78-.55-1.58-.95-2.47-1.3-.67-.26-1.46.41-1.42,1.08.08,1.55.05,3.09-.1,4.63l1.92-.8-3.75-3.96c-.79-.83-2.16.03-1.88,1.09.44,1.69.57,3.41.32,5.15l1.65-.67-1.86-1.34c-.75-.54-1.64.2-1.69.97-.08,1.19-.16,2.39-.24,3.58l1.42-1.08c-.72-.21-1.35-.5-1.98-.89-.56-.35-1.55-.05-1.65.67l-.19,1.29c-.21,1.42,1.96,2.03,2.17.6h0Z"/><path class="cls-1" d="M86.7,8.36c8.64,7.21,16.94,14.81,24.89,22.78.43.43,1.35.14,1.28-.53-.49-5.02-1.02-10.03-1.6-15.04-.29-2.54-.6-5.08-.92-7.62-.14-1.15-.29-2.29-.44-3.44-.12-.92-.17-1.92-.55-2.78-1.9-4.27-6.43,2.4-7.76,3.94-2.91,3.37-5.69,6.86-8.35,10.43-3.2,4.3-6.21,8.74-9.05,13.29-.32.52.22,1.35.85,1.1,11.83-4.65,23.66-9.29,35.48-13.94.67-.26.75-1.21,0-1.45-10.8-3.37-21.7-6.67-32.87-8.56-.94-.16-1.35,1.29-.4,1.45,11.17,1.89,22.07,5.2,32.87,8.56v-1.45c-11.83,4.65-23.66,9.29-35.48,13.94l.85,1.1c4.36-7.01,9.15-13.75,14.4-20.13,1.24-1.51,2.51-3.01,3.8-4.48.64-.73,1.29-1.46,1.95-2.19.28-.3.55-.69.87-.94.27-.2.96-.57,1.33-.37.15.08.24.54.28.7.58,2.02.62,4.35.87,6.44s.52,4.26.77,6.4c.58,5.01,1.11,10.02,1.6,15.04l1.28-.53c-7.95-7.96-16.25-15.57-24.89-22.78-.74-.61-1.8.44-1.06,1.06h0Z"/></g><g id="farvet-5"><path class="cls-1" d="M47.89,26.89l.19-1.29-1.65.67c.79.49,1.62.85,2.52,1.12.74.22,1.38-.38,1.42-1.08.08-1.19.16-2.39.24-3.58l-1.69.97,1.86,1.34c.54.39,1.55.01,1.65-.67.31-2.16.23-4.23-.32-6.35l-1.88,1.09,3.75,3.96c.73.77,1.83.12,1.92-.8.15-1.54.19-3.08.1-4.63l-1.42,1.08c.7.27,1.32.64,1.93,1.07.56.4,1.53,0,1.65-.67.23-1.24.24-2.42.04-3.67l-2.17.6.73,1.9,2.06-.87c-1.94-3.58-4.71-6.57-8.11-8.82l-1.14,1.94c5.3,2.39,9.06,6.93,11.52,12.1l1.27-1.65c-2.55-.94-5.32-.94-7.87-.01-1.18.43-1.01,2.16.3,2.21,1.2.05,2.26-.34,3.33-.85s2.3-1.32,3.56-.97,2.15,1.65,2.84,2.68c.79,1.19,1.56,2.38,2.7,3.27.81.63,2.24.09,1.88-1.09-1.73-5.62-4.5-10.79-8.19-15.36-.79-.98-2.02.13-1.88,1.09.22,1.5.44,3.01.67,4.51l1.65-1.27c-1.32-.88-2.27-2.04-2.95-3.47l-1.77,1.36c2.43,2.16,4.72,4.48,6.85,6.93.72.83,1.81.07,1.92-.8.42-3.16.12-6.33-.85-9.36l-2.17.6,2.99,7.11c.55,1.3,2.49.86,2.17-.6l-1.16-5.32-.63-2.9c-.15-.69-.21-1.57-.62-2.16-.8-1.15-2.04-.66-2.84.18-1.31,1.36-2.56,2.79-3.84,4.18l1.92.8c.11-1.6.87-2.9,2.1-3.9h-1.59c.34.41.67.82,1.01,1.24.48.58,1.42.33,1.77-.23.87-1.39,1.66-2.82,2.39-4.28l-2.06-.27c.54,2.01.79,4.02.75,6.1-.03,1.48,2.08,1.4,2.25,0l.35-2.88h-2.25c-.1,2.75-.17,5.65.27,8.38s3.55,1.62,5.4,1.41l-.3-2.21c-.27.07-.54.13-.8.2-.98.24-1.06,1.56-.27,2.06,1.21.77,2.5,1.16,3.92,1.27.93.07,1.54-1.31.8-1.92-1.04-.85-2.16-1.3-3.51-1.28v2.25l2.73-.04-.3-2.21c-5.97,1.02-15.19-1.82-18.43,5.34-.24.54-.18,1.23.4,1.54l1.5.79.27-2.06-5.14,2.07,1.09,1.88c1.65-1.81,2.91-3.84,3.82-6.12.13-.33,0-.88-.29-1.09l-1.32-1.03c-1.13-.88-2.73.7-1.59,1.59l1.32,1.03-.29-1.09c-.76,1.9-1.86,3.61-3.24,5.12-.69.75-.02,2.33,1.09,1.88l5.14-2.07c.83-.33,1.21-1.56.27-2.06l-1.5-.79.4,1.54c1.18-2.61,4-3.72,6.71-3.99,3.46-.34,6.92.28,10.37-.31,1.26-.22.95-2.23-.3-2.21l-2.73.04c-1.45.02-1.45,2.27,0,2.25.72,0,1.35.16,1.92.62l.8-1.92c-1.03-.08-1.91-.4-2.79-.96l-.27,2.06c.27-.07.54-.13.8-.2,1.2-.29.98-2.36-.3-2.21-.96.11-1.92.24-2.88.34-.18.02-.37.04-.55.05.3.3.37.2.2-.31.07-.43-.08-1-.11-1.43-.13-2.06-.15-4.13-.08-6.2.05-1.48-2.08-1.4-2.25,0l-.35,2.88h2.25c.04-2.27-.24-4.51-.83-6.7-.24-.89-1.62-1.16-2.06-.27-.73,1.47-1.52,2.89-2.39,4.28l1.77-.23c-.34-.41-.67-.82-1.01-1.24-.41-.5-1.16-.35-1.59,0-1.69,1.38-2.61,3.33-2.76,5.49-.06.97,1.28,1.49,1.92.8.72-.79,1.45-1.57,2.17-2.36.2-.22,1.6-2.02,1.82-2.01l-.8-.33c.33.35.34,1.5.45,1.99l.58,2.66,1.11,5.08,2.17-.6-2.99-7.11c-.54-1.29-2.62-.82-2.17.6.92,2.86,1.16,5.79.77,8.76l1.92-.8c-2.13-2.46-4.42-4.77-6.85-6.93-.98-.87-2.31.21-1.77,1.36.84,1.78,2.12,3.19,3.76,4.28.91.6,1.78-.39,1.65-1.27l-.67-4.51-1.88,1.09c3.44,4.26,6.01,9.14,7.61,14.37l1.88-1.09c-2.37-1.86-3.16-5.31-6.19-6.42-1.31-.48-2.63-.27-3.89.26s-2.49,1.42-3.94,1.36l.3,2.21c2.23-.81,4.45-.81,6.68.01,1.01.37,1.65-.85,1.27-1.65-2.6-5.48-6.72-10.38-12.32-12.91-1.3-.59-2.36,1.13-1.14,1.94,3.08,2.03,5.55,4.77,7.3,8.01.59,1.1,2.52.34,2.06-.87l-.73-1.9c-.52-1.36-2.4-.83-2.17.6.13.83.12,1.65-.04,2.48l1.65-.67c-.78-.55-1.58-.95-2.47-1.3-.67-.26-1.46.41-1.42,1.08.08,1.55.05,3.09-.1,4.63l1.92-.8-3.75-3.96c-.79-.83-2.16.03-1.88,1.09.44,1.69.57,3.41.32,5.15l1.65-.67-1.86-1.34c-.75-.54-1.64.2-1.69.97-.08,1.19-.16,2.39-.24,3.58l1.42-1.08c-.72-.21-1.35-.5-1.98-.89-.56-.35-1.55-.05-1.65.67l-.19,1.29c-.21,1.42,1.96,2.03,2.17.6h0Z"/><path class="cls-1" d="M44.7,8.36c8.64,7.21,16.94,14.81,24.89,22.78.43.43,1.35.14,1.28-.53-.49-5.02-1.02-10.03-1.6-15.04-.29-2.54-.6-5.08-.92-7.62-.14-1.15-.29-2.29-.44-3.44-.12-.92-.17-1.92-.55-2.78-1.9-4.27-6.43,2.4-7.76,3.94-2.91,3.37-5.69,6.86-8.35,10.43-3.2,4.3-6.21,8.74-9.05,13.29-.32.52.22,1.35.85,1.1,11.83-4.65,23.66-9.29,35.48-13.94.67-.26.75-1.21,0-1.45-10.8-3.37-21.7-6.67-32.87-8.56-.94-.16-1.35,1.29-.4,1.45,11.17,1.89,22.07,5.2,32.87,8.56v-1.45c-11.83,4.65-23.66,9.29-35.48,13.94l.85,1.1c4.36-7.01,9.15-13.75,14.4-20.13,1.24-1.51,2.51-3.01,3.8-4.48.64-.73,1.29-1.46,1.95-2.19.28-.3.55-.69.87-.94.27-.2.96-.57,1.33-.37.15.08.24.54.28.7.58,2.02.62,4.35.87,6.44s.52,4.26.77,6.4c.58,5.01,1.11,10.02,1.6,15.04l1.28-.53c-7.95-7.96-16.25-15.57-24.89-22.78-.74-.61-1.8.44-1.06,1.06h0Z"/></g></g></svg>