<?xml version="1.0" encoding="UTF-8"?><svg id="Lag_1" xmlns="http://www.w3.org/2000/svg" width="63" height="63" viewBox="0 0 63 63"><defs><style>.cls-1{fill:#363636;stroke-width:0px;}.cls-2{fill:none;stroke:#363636;stroke-miterlimit:10;stroke-width:3px;}</style></defs><g id="favicon"><path class="cls-1" d="M15.69,25.78c3.3-4.15,8.44-5.63,13.33-7.02s10.3-2.93,14.3-6.57l-2.51-1.46c-2.6,11.74-5.28,24.8-13.2,34.28-1.68,2.01-3.95,4.18-6.68,4.52-3.09.39-3.84-3.58-3.3-5.87,1.43-6.11,7.87-8.4,13.4-9.2,6.71-.97,13.95-.68,19.72-4.8,1.56-1.11.06-3.72-1.51-2.59-5.89,4.21-13.51,3.49-20.31,4.71-6.15,1.1-12.65,4.49-14.19,11.08-.67,2.89-.14,6.35,2.19,8.39,2.63,2.3,6.41,1.15,9.01-.61s4.56-4.28,6.29-6.88c1.94-2.93,3.53-6.06,4.89-9.3,3.09-7.36,4.86-15.17,6.58-22.93.33-1.48-1.38-2.48-2.51-1.46-7.83,7.13-20.76,4.93-27.63,13.59-1.19,1.5.92,3.63,2.12,2.12h0Z"/><circle class="cls-2" cx="31.5" cy="31.5" r="30"/></g></svg>