<svg width="128" height="128" viewBox="0 0 128 128" fill="none" xmlns="http://www.w3.org/2000/svg">
<g clip-path="url(#clip0_128_30)">
<path d="M98 0H30C13.4315 0 0 13.4315 0 30V98C0 114.569 13.4315 128 30 128H98C114.569 128 128 114.569 128 98V30C128 13.4315 114.569 0 98 0Z" fill="#F4F2ED"/>
<mask id="mask0_128_30" style="mask-type:luminance" maskUnits="userSpaceOnUse" x="30" y="14" width="68" height="100">
<path d="M30.5 14H97.18V114H30.5V14Z" fill="white"/>
</mask>
<g mask="url(#mask0_128_30)">
<path d="M47.1736 114C56.3736 114 63.8401 106.534 63.8401 97.3335V80.6665H47.1736C37.9736 80.6665 30.5066 88.1335 30.5066 97.3335C30.5066 106.534 37.9736 114 47.1736 114Z" fill="#0ACF83"/>
<path d="M30.5066 64C30.5066 54.8 37.9736 47.3335 47.1736 47.3335H63.8401V80.6665H47.1736C37.9736 80.6665 30.5066 73.2 30.5066 64Z" fill="#A259FF"/>
<path d="M30.5066 30.6665C30.5066 21.4665 37.9736 14 47.1736 14H63.8401V47.3335H47.1736C37.9736 47.3335 30.5066 39.8665 30.5066 30.6665Z" fill="#F24E1E"/>
<path d="M63.8401 14H80.5066C89.7066 14 97.1736 21.4665 97.1736 30.6665C97.1736 39.8665 89.7066 47.3335 80.5066 47.3335H63.8401V14Z" fill="#FF7262"/>
<path d="M97.1736 64C97.1736 73.2 89.7066 80.6665 80.5066 80.6665C71.3066 80.6665 63.8401 73.2 63.8401 64C63.8401 54.8 71.3066 47.3335 80.5066 47.3335C89.7066 47.3335 97.1736 54.8 97.1736 64Z" fill="#1ABCFE"/>
</g>
</g>
<defs>
<clipPath id="clip0_128_30">
<rect width="128" height="128" fill="white"/>
</clipPath>
</defs>
</svg>
