<svg width="128" height="128" viewBox="0 0 128 128" fill="none" xmlns="http://www.w3.org/2000/svg">
<g clip-path="url(#clip0_106_33)">
<path d="M106.75 0H21.25C9.51395 0 0 9.74228 0 21.76V106.035C0 118.053 9.51395 127.795 21.25 127.795H106.75C118.486 127.795 128 118.053 128 106.035V21.76C128 9.74228 118.486 0 106.75 0Z" fill="#330000"/>
<path d="M62.0271 76.6925H42.192L38.156 89.5299C38.1011 89.7641 37.9682 89.9713 37.78 90.1158C37.5919 90.2603 37.3604 90.333 37.1255 90.3215H27.079C26.5064 90.3215 26.306 89.9989 26.478 89.3538L43.6515 38.7078C43.8232 38.1804 43.9949 37.5797 44.1665 36.9055C44.3915 35.732 44.5065 34.5401 44.51 33.3446C44.4984 33.261 44.5058 33.1757 44.5319 33.0955C44.558 33.0154 44.6019 32.9425 44.6602 32.8828C44.7185 32.823 44.7896 32.778 44.8679 32.7512C44.9461 32.7245 45.0294 32.7167 45.111 32.7286H58.764C59.164 32.7286 59.393 32.8754 59.451 33.169L78.9425 89.4419C79.1142 90.029 78.9425 90.3222 78.4275 90.3215H67.2646C67.0729 90.3429 66.8802 90.2923 66.7223 90.1791C66.5643 90.0659 66.452 89.8978 66.406 89.7061L62.0271 76.6925ZM45.283 65.6139H58.85L58.6566 64.9601L58.346 63.9248L58.1245 63.1978L57.771 62.0529L57.0195 59.643L56.3585 57.5064L54.642 51.9409C54.2148 50.5574 53.8048 49.1685 53.412 47.7743L53.098 46.6428L52.731 45.3049L52.171 43.2313L52.066 42.8406H51.9805C51.5508 44.9511 51.0276 47.0406 50.4125 49.1024L49.1385 53.2988L48.4375 55.6171L47.73 57.9641C47.6024 58.388 47.4749 58.8072 47.3475 59.2216L46.9675 60.4494L46.5895 61.6485L46.2135 62.8179L45.8395 63.9581C45.7155 64.3336 45.5917 64.7039 45.468 65.0691L45.283 65.6139ZM90.5335 42.0491C89.6578 42.085 88.7845 41.9312 87.9707 41.5979C87.157 41.2646 86.421 40.7592 85.811 40.1148C85.2031 39.442 84.7308 38.653 84.4213 37.7929C84.1118 36.9328 83.9712 36.0186 84.0075 35.1028C83.9764 34.1961 84.1324 33.2929 84.4653 32.4521C84.7982 31.6113 85.3006 30.8519 85.9395 30.2234C87.1721 29.0118 88.8135 28.3338 90.522 28.3306L90.705 28.3326C92.766 28.3326 94.3834 28.9627 95.557 30.2229C96.1493 30.8779 96.6096 31.646 96.9116 32.4834C97.2136 33.3207 97.3514 34.2109 97.317 35.1028C97.3534 36.0224 97.2087 36.94 96.8916 37.8012C96.5744 38.6623 96.0913 39.4493 95.471 40.1153C94.845 40.747 94.102 41.2441 93.2855 41.5774C92.4691 41.9106 91.5958 42.0733 90.717 42.0558L90.5335 42.0491ZM84.6085 89.4419V47.4128C84.6082 46.8851 84.8372 46.6213 85.2956 46.6213H95.8575C96.3152 46.6213 96.5442 46.8851 96.5445 47.4128V89.4419C96.5445 90.029 96.3155 90.3222 95.8575 90.3215H85.3815C84.8935 90.3215 84.6367 90.0583 84.611 89.532L84.6085 89.4419Z" fill="#FF9A00"/>
</g>
<defs>
<clipPath id="clip0_106_33">
<rect width="128" height="128" fill="white"/>
</clipPath>
</defs>
</svg>
