<svg width="128" height="125" viewBox="0 0 128 125" fill="none" xmlns="http://www.w3.org/2000/svg">
<g clip-path="url(#clip0_3_2)">
<path d="M106.75 0H21.25C9.51395 0 0 9.51395 0 21.25V103.55C0 115.286 9.51395 124.8 21.25 124.8H106.75C118.486 124.8 128 115.286 128 103.55V21.25C128 9.51395 118.486 0 106.75 0Z" fill="#49021F"/>
<path d="M46.4845 32.6485V87.3455C46.4845 87.9182 46.2268 88.2045 45.7115 88.2045H35.3215C34.8628 88.2045 34.634 87.9182 34.635 87.3455V32.6485C34.635 32.1908 34.8925 31.9618 35.4075 31.9615H45.7975C45.8849 31.9491 45.9739 31.9559 46.0584 31.9815C46.1428 32.007 46.2207 32.0506 46.2866 32.1093C46.3526 32.1679 46.4049 32.2403 46.44 32.3212C46.4751 32.4022 46.4922 32.4898 46.49 32.578L46.4845 32.6485ZM77.7775 89.0575L77.2245 89.063C73.2724 89.1233 69.3564 88.302 65.7615 86.659C62.4124 85.109 59.6128 82.5787 57.733 79.403C55.8337 76.2483 54.861 72.3167 54.815 67.608L54.8135 67.253C54.7813 63.312 55.7884 59.4322 57.7335 56.0045C59.6831 52.6067 62.5266 49.8082 65.955 47.913L66.234 47.761C69.954 45.7003 74.4477 44.67 79.715 44.67L79.826 44.6705L80.0725 44.676L80.3515 44.687L80.663 44.703L81.0065 44.7245L81.382 44.752L82.2305 44.8215L82.4625 44.8415V27.9265C82.4625 27.5262 82.6342 27.3257 82.9775 27.325H93.797C93.867 27.315 93.9383 27.3214 94.0054 27.3437C94.0724 27.366 94.1334 27.4037 94.1834 27.4537C94.2333 27.5036 94.271 27.5646 94.2933 27.6316C94.3157 27.6987 94.322 27.77 94.312 27.84V78.5875C94.3154 79.6477 94.3584 80.7075 94.441 81.7645L94.522 82.8715L94.5935 83.902L94.6555 84.8555C94.6661 85.0339 94.6227 85.2113 94.5308 85.3646C94.4389 85.5179 94.3029 85.6398 94.1405 85.7145C91.3493 86.8784 88.4421 87.7418 85.468 88.29C82.9304 88.7588 80.3582 89.0155 77.778 89.0575M82.463 78.4155V54.974C81.999 54.8483 81.5251 54.7621 81.0465 54.7165C80.4616 54.6574 79.8739 54.6287 79.286 54.6305C77.202 54.61 75.143 55.0805 73.2755 56.0045C71.4566 56.9093 69.9035 58.2703 68.7675 59.9545C67.5935 61.6715 67.0067 63.9327 67.007 66.738C66.9654 68.6096 67.2711 70.4728 67.9085 72.233C68.4275 73.6515 69.2479 74.9406 70.313 76.0115C71.3326 76.9968 72.5673 77.7316 73.9195 78.158C75.3477 78.6203 76.8404 78.8523 78.3415 78.8455C79.1425 78.8455 79.8867 78.8167 80.574 78.759C81.1223 78.7177 81.6658 78.6273 82.198 78.489L82.463 78.4155Z" fill="#FF3366"/>
</g>
<defs>
<clipPath id="clip0_3_2">
<rect width="128" height="125" fill="white"/>
</clipPath>
</defs>
</svg>
