<svg width="25" height="25" viewBox="0 0 25 25" fill="none" xmlns="http://www.w3.org/2000/svg">
<path d="M8.12504 2.08337H16.875C20.2084 2.08337 22.9167 4.79171 22.9167 8.12504V16.875C22.9167 18.4774 22.2802 20.0141 21.1471 21.1471C20.0141 22.2802 18.4774 22.9167 16.875 22.9167H8.12504C4.79171 22.9167 2.08337 20.2084 2.08337 16.875V8.12504C2.08337 6.52269 2.71991 4.98597 3.85294 3.85294C4.98597 2.71991 6.52269 2.08337 8.12504 2.08337ZM7.91671 4.16671C6.92215 4.16671 5.96832 4.5618 5.26506 5.26506C4.5618 5.96832 4.16671 6.92215 4.16671 7.91671V17.0834C4.16671 19.1563 5.84379 20.8334 7.91671 20.8334H17.0834C18.0779 20.8334 19.0318 20.4383 19.735 19.735C20.4383 19.0318 20.8334 18.0779 20.8334 17.0834V7.91671C20.8334 5.84379 19.1563 4.16671 17.0834 4.16671H7.91671ZM17.9688 5.72921C18.3141 5.72921 18.6453 5.86639 18.8895 6.11058C19.1337 6.35477 19.2709 6.68596 19.2709 7.03129C19.2709 7.37663 19.1337 7.70782 18.8895 7.952C18.6453 8.19619 18.3141 8.33337 17.9688 8.33337C17.6235 8.33337 17.2923 8.19619 17.0481 7.952C16.8039 7.70782 16.6667 7.37663 16.6667 7.03129C16.6667 6.68596 16.8039 6.35477 17.0481 6.11058C17.2923 5.86639 17.6235 5.72921 17.9688 5.72921ZM12.5 7.29171C13.8814 7.29171 15.2061 7.84044 16.1829 8.81719C17.1596 9.79395 17.7084 11.1187 17.7084 12.5C17.7084 13.8814 17.1596 15.2061 16.1829 16.1829C15.2061 17.1596 13.8814 17.7084 12.5 17.7084C11.1187 17.7084 9.79395 17.1596 8.81719 16.1829C7.84044 15.2061 7.29171 13.8814 7.29171 12.5C7.29171 11.1187 7.84044 9.79395 8.81719 8.81719C9.79395 7.84044 11.1187 7.29171 12.5 7.29171ZM12.5 9.37504C11.6712 9.37504 10.8764 9.70428 10.2903 10.2903C9.70428 10.8764 9.37504 11.6712 9.37504 12.5C9.37504 13.3288 9.70428 14.1237 10.2903 14.7098C10.8764 15.2958 11.6712 15.625 12.5 15.625C13.3288 15.625 14.1237 15.2958 14.7098 14.7098C15.2958 14.1237 15.625 13.3288 15.625 12.5C15.625 11.6712 15.2958 10.8764 14.7098 10.2903C14.1237 9.70428 13.3288 9.37504 12.5 9.37504Z" fill="#363636"/>
</svg>
