<?xml version="1.0" encoding="UTF-8"?><svg id="Lag_1" xmlns="http://www.w3.org/2000/svg" width="350.52" height="28.21" viewBox="0 0 350.52 28.21"><defs><style>.cls-1{fill:#363636;stroke-width:0px;}</style></defs><path class="cls-1" d="M1.08,23.34c7.46.37,14.94.36,22.4-.04,3.79-.21,7.57-.52,11.34-.93,3.09-.34,6.27-.61,9.27-1.44,5.09-1.42,9.64-5.18,9.96-10.79.25-4.32-3.22-8.2-7.72-7.48-1.47.23-3.87,1.51-3.91,3.27-.03.99.91,2.43,1.39,3.25.65,1.12,1.44,2.17,2.31,3.12,3.46,3.8,8.33,6.1,13.19,7.53,10.84,3.19,22.67,3.14,33.63.6,12.72-2.95,24.49-9.44,33.86-18.51C127.5,1.24,126.96,0,126,0c-5.8,0-8.08,6.73-7.36,11.58,1.04,7.02,8.16,10.16,14.46,11,8.64,1.16,17.77.4,26.35-.93,9.16-1.42,18.13-3.96,26.68-7.53,3.35-1.4,7.98-3.22,6.06-7.74s-6.83-3.78-10.62-2.57c-.45.15-.85.58-.83,1.08.48,9.78,9.87,14.77,18.53,16.22,5.71.96,11.64.61,17.37.02,6.62-.68,13.17-1.98,19.53-3.91,7.32-2.21,14.38-5.24,21.06-8.96.67-.37.69-1.24.23-1.77-3.34-3.8-9.51-3.34-12.87.23-4.31,4.58-1.97,11.29,2.19,15.04,5.18,4.67,12.49,6.15,19.27,6.41,8.08.3,16.11-1.52,23.67-4.27,8.89-3.23,17.26-7.72,25.46-12.4.63-.36.73-1.26.23-1.77-2.82-2.83-7.45-5.41-11.37-3.1-2.87,1.68-4.58,5.85-2.81,8.88.98,1.67,2.79,2.53,4.6,2.96,2.47.59,5.09.82,7.61,1.08,5.79.59,11.62.69,17.43.3,6.36-.42,12.66-1.43,18.84-2.96,1.4-.35.81-2.52-.6-2.17-11.01,2.73-22.4,3.69-33.71,2.76-2.76-.23-5.54-.52-8.26-1.03-2.12-.4-4.5-1.33-4.38-3.89.1-2.09,1.72-4.14,3.81-4.48,2.79-.45,5.39,1.39,7.24,3.25l.23-1.77c-12.04,6.88-24.78,13.71-38.66,15.81-6.77,1.03-13.96.83-20.48-1.41-4.91-1.68-10.83-6.02-10.34-11.85.45-5.35,7.64-8.2,11.31-4.02l.23-1.77c-10.89,6.05-22.79,10.17-35.12,12.01-9.73,1.45-21.17,2.5-30.19-2.35-4.31-2.32-7.55-6.05-7.8-11.1l-.83,1.08c1.83-.59,3.97-1.37,5.87-.7,1.34.47,2.76,2.13,2.28,3.66-.52,1.64-3.23,2.35-4.62,2.94-1.73.73-3.48,1.41-5.24,2.05-6.8,2.47-13.83,4.3-20.97,5.45s-14.56,1.61-21.87,1.32c-5.52-.22-12.72-1.16-15.77-6.5-2.07-3.64-1.36-11.95,4.15-11.95l-.8-1.92c-14.38,13.92-34.56,21.33-54.55,19.37-8.75-.86-19.89-3.3-24.78-11.45-.46-.76-1.31-1.87-.91-2.47.48-.72,1.58-.97,2.38-.96,2.08.01,3.83,1.44,4.31,3.44,1.32,5.54-4.04,9.46-8.7,10.64-3.2.81-6.57,1.07-9.85,1.4-3.55.36-7.1.62-10.66.8-7.12.35-14.25.34-21.36,0-1.45-.07-1.44,2.18,0,2.25h0Z"/></svg>