<svg width="128" height="125" viewBox="0 0 128 125" fill="none" xmlns="http://www.w3.org/2000/svg">
<g clip-path="url(#clip0_3_14)">
<path d="M106.75 0H21.25C9.51395 0 0 9.51395 0 21.25V103.55C0 115.286 9.51395 124.8 21.25 124.8H106.75C118.486 124.8 128 115.286 128 103.55V21.25C128 9.51395 118.486 0 106.75 0Z" fill="#001E36"/>
<path d="M67.2215 88.2045H33.39C32.817 88.2045 32.5308 87.8895 32.5315 87.2595V32.735C32.5165 32.63 32.5261 32.523 32.5596 32.4224C32.5931 32.3218 32.6495 32.2304 32.7245 32.1554C32.7994 32.0804 32.8908 32.0238 32.9914 31.9903C33.092 31.9567 33.199 31.947 33.304 31.962H43.78C43.8617 31.9505 43.9449 31.9581 44.0231 31.9843C44.1013 32.0105 44.1723 32.0544 44.2306 32.1128C44.2889 32.1711 44.3328 32.2422 44.3589 32.3204C44.385 32.3986 44.3926 32.4819 44.381 32.5635V77.386H69.0245C69.5395 77.386 69.74 77.6435 69.626 78.1585L68.08 87.432C68.0764 87.5586 68.0434 87.6826 67.9839 87.7943C67.9243 87.9061 67.8396 88.0025 67.7365 88.076C67.5772 88.1586 67.4009 88.2028 67.2215 88.205M75.7215 45.529H85.081C85.603 45.534 86.059 45.884 86.197 46.388C86.4015 46.7641 86.5465 47.1696 86.627 47.59C86.7463 48.143 86.832 48.7012 86.884 49.2645C86.9407 49.8655 86.9693 50.5095 86.97 51.1965C88.5749 49.3274 90.5106 47.77 92.68 46.6025C95.1169 45.2848 97.8531 44.6193 100.623 44.6705C100.728 44.6555 100.835 44.6652 100.936 44.6988C101.036 44.7323 101.128 44.7889 101.202 44.8639C101.277 44.9389 101.334 45.0303 101.367 45.1309C101.401 45.2315 101.411 45.3385 101.395 45.4435V55.8335C101.395 56.2345 101.109 56.4348 100.537 56.4345C97.0781 56.2205 93.6182 56.8387 90.4475 58.2375C89.3702 58.7041 88.3935 59.3748 87.571 60.2125V87.4325C87.571 87.9475 87.342 88.205 86.884 88.205H76.494C76.3774 88.2217 76.2584 88.2111 76.1467 88.1738C76.0349 88.1366 75.9333 88.0738 75.85 87.9905C75.7667 87.9072 75.7039 87.8056 75.6667 87.6938C75.6294 87.5821 75.6188 87.4631 75.6355 87.3465V57.808C75.6355 57.089 75.6308 56.3462 75.6215 55.5795L75.604 54.4125C75.6007 54.2148 75.5968 54.0158 75.5925 53.8155C75.5707 52.7715 75.541 51.7276 75.5035 50.684L75.4635 49.651C75.4255 48.4713 75.311 47.2953 75.1205 46.1305C75.1004 46.0527 75.0995 45.9711 75.1181 45.8929C75.1367 45.8146 75.1741 45.7421 75.2271 45.6817C75.2801 45.6212 75.347 45.5746 75.4221 45.5459C75.4972 45.5172 75.5782 45.5073 75.658 45.517L75.7215 45.529Z" fill="#31A8FF"/>
</g>
<defs>
<clipPath id="clip0_3_14">
<rect width="128" height="125" fill="white"/>
</clipPath>
</defs>
</svg>
