<svg width="337" height="212" viewBox="0 0 337 212" fill="none" xmlns="http://www.w3.org/2000/svg">
<g clip-path="url(#clip0_126_25)">
<path d="M158.46 3.94997C151.76 1.69997 142.98 -0.180028 138.03 6.43997C135.42 9.91997 135.09 14.53 132.98 18.27C130.22 23.17 125.75 27.33 122.34 31.79C116.89 38.91 110.35 46.37 112.1 55.91C113.61 64.18 118.26 71.45 125.02 76.38C126.57 77.51 128.06 74.93 126.52 73.81C120.45 69.39 116.2 62.55 114.97 55.12C113.43 45.81 121.93 36.92 127.37 30.18C131.41 25.18 135.62 20.89 137.69 14.68C139.1 10.47 140.36 6.42997 145.14 5.12997C149.33 3.98997 153.72 5.49997 157.67 6.81997C159.49 7.42997 160.27 4.55997 158.46 3.94997Z" fill="#363636"/>
<path d="M160.08 6.06997C165.53 1.62997 172.83 2.17997 177.73 7.12997C181.73 11.16 183.58 16.79 185.98 21.8C190.52 31.26 198.55 38.39 203.25 47.72C208.8 58.74 206.76 71.07 194.95 76.65C189.17 79.38 182.45 79.39 176.33 77.96C173.52 77.3 170.2 76.51 167.74 75.01C164.18 72.84 163.73 70.08 164.16 66.21C164.37 64.31 161.39 64.32 161.18 66.21C160.47 72.71 162.23 75.96 168.17 78.42C174.72 81.14 181.97 82.64 189.05 81.51C201.44 79.54 211.23 68.98 209.19 56.08C208.02 48.66 203.81 42.29 199.37 36.42C193.95 29.27 189.74 22.55 185.89 14.44C183.4 9.17997 180.15 3.78997 174.62 1.29997C168.92 -1.26003 162.69 0.119973 157.98 3.96997C156.49 5.17997 158.61 7.27997 160.08 6.06997Z" fill="#363636"/>
<path d="M125.01 76.38C130.53 80.02 138.31 80.53 144.56 78.41C150.81 76.29 152.37 70.32 151.48 64.25C151.2 62.36 148.33 63.16 148.61 65.04C149.76 72.91 144.99 76.08 138 76.42C133.77 76.62 130.16 76.21 126.52 73.81C124.92 72.75 123.42 75.33 125.02 76.38H125.01Z" fill="#363636"/>
<path d="M155.59 13.91C160.6 19.05 166.41 22.77 171.76 27.42C175.49 30.66 174.66 33.47 177.19 36.93C177.75 37.7 178.44 38.27 179.15 38.89C179.57 39.22 180 39.54 180.44 39.84C183.29 41.23 182.8 43.14 178.97 45.55C178.37 45.33 177.59 45.69 177.29 46.23C173.36 53.4 168.23 59.48 161.85 64.59C160.35 65.79 162.47 67.88 163.95 66.69C170.52 61.43 175.81 55.1 179.85 47.73L178.17 48.41C180.95 49.41 184.09 48.76 185.49 45.92C187.22 42.42 185.1 39.71 182.43 37.62C178.09 34.2 178.39 28.64 173.95 25.32C168.23 21.04 162.7 16.94 157.7 11.8C156.36 10.43 154.26 12.53 155.6 13.9L155.59 13.91Z" fill="#363636"/>
<path d="M154.59 10.68C148.92 16.48 143.08 22.16 137.57 28.12C133.86 32.13 129.78 37.3 129.97 43.09C130.03 44.88 130.53 46.7 131.69 48.09C133.09 49.76 134.97 49.82 136.48 51.08C138.43 52.71 139.81 55.93 141.6 57.91C143.89 60.44 146.49 62.59 149.26 64.58C150.82 65.7 152.31 63.12 150.76 62.01C146.3 58.8 142.45 54.92 139.49 50.27C138.77 49.14 138.13 48.35 137.34 47.49C136.65 46.74 133.31 44.31 132.95 43.1C132.49 41.56 133.73 38.99 134.34 37.66C136.63 32.73 140.88 28.95 144.63 25.12C148.65 21.01 152.67 16.9 156.7 12.78C158.04 11.41 155.94 9.30003 154.6 10.68H154.59Z" fill="#363636"/>
<path d="M154.21 32.65C154.4 34.96 154.46 37.26 154.21 39.57C153.93 42.08 152.92 44.56 152.92 47.1C152.92 49.64 154.1 51.43 156.4 52.31C158.19 52.99 158.97 50.12 157.19 49.44C154.62 48.46 156.72 42.99 157.01 40.95C157.4 38.18 157.43 35.44 157.2 32.66C157.04 30.77 154.06 30.75 154.22 32.66L154.21 32.65Z" fill="#363636"/>
<path d="M163.82 33.4C165.46 32.45 167.95 30.93 169.62 32.63C170.96 34 173.06 31.9 171.72 30.53C168.99 27.73 165.22 29.15 162.32 30.83C160.66 31.79 162.16 34.36 163.82 33.4Z" fill="#363636"/>
<path d="M151.91 31.2799C148.77 29.1999 144.55 27.9499 141.55 30.9799C140.2 32.3399 142.3 34.45 143.65 33.08C145.64 31.07 148.47 32.5599 150.41 33.8499C152.01 34.9099 153.5 32.3299 151.91 31.2799Z" fill="#363636"/>
<path d="M146.87 36.6C146.3 37.93 146.13 39.23 146.44 40.65C146.59 41.38 147.55 41.97 148.27 41.69C149.26 41.3 149.97 40.62 150.31 39.59C150.65 38.56 150.45 37.54 150.24 36.55C150.07 35.76 149.15 35.31 148.41 35.51C147.6 35.73 147.2 36.55 147.37 37.34C147.46 37.75 147.55 38.16 147.51 38.58C147.51 38.58 147.38 38.85 147.49 38.81L149.32 39.85C149.2 39.28 149.22 38.63 149.45 38.09C149.77 37.35 149.67 36.49 148.92 36.05C148.29 35.68 147.2 35.84 146.88 36.58L146.87 36.6Z" fill="#363636"/>
<path d="M163.52 36.3699C163.52 37.3899 163.36 38.5699 163.59 39.5599C163.91 40.9499 165.58 41.4799 166.62 40.4599C168.02 39.0899 167.64 36.5299 166.25 35.3099C165.65 34.7799 164.74 34.7199 164.15 35.3099C163.61 35.8499 163.54 36.8799 164.15 37.4099C164.41 37.6399 164.48 37.6999 164.52 37.9599C164.49 37.8099 164.49 38.4499 164.53 38.1899C164.51 38.2999 164.48 38.3999 164.44 38.5099C164.45 38.4799 164.45 38.4399 164.45 38.4099L165.11 38.0299L164.96 38.0899H165.75L165.6 38.0699L166.26 38.4499C166.44 39.0799 166.53 39.2299 166.51 38.8999V38.5399C166.51 38.2999 166.51 38.0599 166.51 37.8199V36.3699C166.5 34.4599 163.52 34.4499 163.53 36.3699H163.52Z" fill="#363636"/>
<path d="M152.2 56.1C154.85 59.78 159.28 58.51 162.42 56.25C163.96 55.14 162.48 52.56 160.92 53.68C159.36 54.8 156.33 56.77 154.77 54.6C153.66 53.06 151.08 54.54 152.2 56.1Z" fill="#363636"/>
<path d="M177.48 42.45C177.48 43.48 177.3 44.49 176.87 45.42C176.53 46.15 176.66 47.02 177.4 47.46C178.04 47.84 179.1 47.66 179.44 46.93C180.1 45.51 180.46 44.03 180.46 42.45C180.46 40.53 177.48 40.53 177.48 42.45Z" fill="#363636"/>
<path d="M133.69 33.62C133.79 39.6 134.78 45.41 136.68 51.09C137.29 52.9 140.16 52.12 139.55 50.3C137.73 44.87 136.76 39.35 136.67 33.62C136.64 31.71 133.66 31.7 133.69 33.62Z" fill="#363636"/>
<path d="M148.25 63.53C152.62 68.38 159.64 69.14 164.9 65.22C166.42 64.09 164.93 61.5 163.4 62.65C159.16 65.82 153.92 65.37 150.36 61.43C149.07 60 146.98 62.11 148.26 63.53H148.25Z" fill="#363636"/>
<path d="M148 75.28C153.02 77.94 158.82 77.82 163.7 74.88C165.34 73.89 163.84 71.32 162.2 72.31C158.25 74.7 153.6 74.87 149.51 72.71C147.82 71.81 146.31 74.38 148.01 75.28H148Z" fill="#363636"/>
<path d="M125.12 75.61C116.27 75.89 110.72 83.05 105.8 89.58C98.84 98.8 92.68 108.62 87.41 118.9C85.26 123.09 83.17 127.33 82.51 132.03C81.79 137.14 82.48 142.49 83.15 147.57C84.48 157.65 87.18 167.4 92.55 176.1C92.99 176.81 93.86 177.01 94.59 176.63C95.84 175.98 97.1 175.34 98.35 174.69C100.05 173.81 98.55 171.24 96.85 172.12C95.6 172.77 94.34 173.41 93.09 174.06L95.13 174.59C90.42 166.97 87.82 158.5 86.44 149.69C85.66 144.68 84.91 139.34 85.27 134.26C85.63 129.18 87.73 124.81 89.99 120.39C94.15 112.27 98.87 104.44 104.09 96.97C109.31 89.5 115.39 78.89 125.13 78.58C127.04 78.52 127.05 75.54 125.13 75.6L125.12 75.61Z" fill="#363636"/>
<path d="M195.87 79.8C206.08 91.89 216.62 104.55 221.9 119.72C222.84 122.42 223.25 125.47 224.7 127.95C226.32 130.73 228.7 133.19 230.7 135.71C235 141.15 248.46 153.28 241.46 160.4C240.12 161.77 242.22 163.87 243.56 162.5C248.46 157.52 246.2 150.93 242.53 145.94C236.99 138.42 228.49 131.12 225.8 122.1C220.73 105.05 209.26 91.0499 197.98 77.6899C196.74 76.2199 194.65 78.3399 195.88 79.7899L195.87 79.8Z" fill="#363636"/>
<path d="M116.28 100.6C115.54 112.55 117.62 124.13 122.33 135.14C123.08 136.9 125.65 135.38 124.9 133.64C120.41 123.15 118.55 111.99 119.26 100.61C119.38 98.7 116.4 98.7 116.28 100.61V100.6Z" fill="#363636"/>
<path d="M189.67 102.46C189.98 112.04 189.86 121.6 189.32 131.16C189.21 133.07 192.19 133.07 192.3 131.16C192.84 121.59 192.95 112.03 192.65 102.46C192.59 100.55 189.61 100.54 189.67 102.46Z" fill="#363636"/>
<path d="M112.39 135.27C113.41 131.94 115.72 129.11 117.2 125.97C118.5 123.22 119.52 120.37 120.34 117.44C120.86 115.59 117.99 114.8 117.47 116.65C116.49 120.14 115.23 123.5 113.51 126.7C112.11 129.3 110.39 131.64 109.52 134.48C108.96 136.32 111.83 137.1 112.39 135.27Z" fill="#363636"/>
<path d="M190.27 119.93C190.85 124.24 192.26 128.23 194.67 131.87C195.72 133.46 198.3 131.97 197.24 130.37C195.14 127.2 193.75 123.71 193.24 119.93C192.99 118.06 190.01 118.03 190.26 119.93H190.27Z" fill="#363636"/>
<path d="M211.67 157.96C215.95 163.89 220.06 171.68 227.39 174.19C229.21 174.81 229.99 171.94 228.18 171.32C221.79 169.13 217.97 161.62 214.24 156.45C213.13 154.91 210.55 156.4 211.67 157.95V157.96Z" fill="#363636"/>
<path d="M153.13 77.62C155.69 95.78 156.82 114.07 156.57 132.4C156.54 134.32 159.52 134.32 159.55 132.4C159.81 113.79 158.61 95.25 156.01 76.83C155.74 74.94 152.88 75.74 153.14 77.62H153.13Z" fill="#363636"/>
<path d="M246.44 156.91C252.27 157.55 258.18 161.37 262.3 165.43C264.53 167.63 265.58 170.16 266.16 173.21L266.53 175.71C265.48 176.97 264.44 178.23 263.39 179.48C263.56 179.75 266.22 179.08 265.62 179.2C267.5 178.83 266.7 175.98 264.83 176.33C261.98 175.91 261.54 175.29 263.52 174.46C264.31 173.94 265.1 173.42 265.88 172.9L264.38 170.33C263.84 170.75 261.72 172.76 260.78 172.3C261.07 172.44 264.77 168.42 265 168.19C266.19 167.03 264.64 164.92 263.2 165.85C262.09 166.56 260.6 168.02 259.34 168.23C257.74 168.5 259.15 167.71 259.96 166.77C260.96 165.61 261.65 165.18 262.1 163.66C262.65 161.82 259.78 161.04 259.23 162.87C258.44 165.51 252.78 166.84 255.12 170.61C257.46 174.38 262.58 169.79 264.7 168.42L262.9 166.08C261.22 167.72 254.63 171.7 256.88 174.79C259.13 177.88 264 174.33 265.89 172.89C267.37 171.76 266.03 169.24 264.39 170.32C262.32 171.69 258.12 173.36 258.77 176.56C259.42 179.76 263.14 179.66 265.62 179.2L264.83 176.33C262.91 176.71 260.4 175.61 258.95 177.47C258 178.69 258.27 180.04 259.16 181.23C261.95 184.95 267.91 183.2 269.2 179.16C270.83 174.07 268.13 166.85 264.4 163.34C259.44 158.68 253.29 154.69 246.43 153.94C244.53 153.73 244.54 156.71 246.43 156.92L246.44 156.91Z" fill="#363636"/>
<path d="M252.43 174.5C252.68 178.96 256.07 182.44 260.46 182.98C262.36 183.21 262.34 180.23 260.46 180C257.74 179.67 255.55 177.19 255.4 174.5C255.29 172.6 252.32 172.58 252.42 174.5H252.43Z" fill="#363636"/>
<path d="M227.23 165.76C227.22 171.05 227.38 176.34 227.8 181.62C228.08 185.14 227.98 189.27 229.2 192.62C231.2 198.12 239.35 198.65 244.3 198.1C260.84 196.25 255.75 175.91 253.53 164.8C253.3 163.64 251.82 163.45 251.04 164.14C248.14 166.74 244.51 167.46 240.75 167.86C238.9 168.06 234.72 168.78 233.13 167.57C230.13 165.3 237.69 164.93 239.24 164.74C242.98 164.28 247.42 163.59 250.77 165.7C252.4 166.72 253.89 164.15 252.27 163.13C247.52 160.14 241.15 161.33 235.9 162.22C233.6 162.61 226.19 162.96 227.76 167.12C229.11 170.69 234.99 171.14 238.04 171.05C243.43 170.89 249.03 169.93 253.14 166.24L250.65 165.58C251.69 170.77 252.45 176 252.8 181.29C252.96 183.72 253.32 186.59 252.54 188.94C251.13 193.2 246.77 195.17 242.57 195.23C239.02 195.28 235.9 194.91 233.47 192.33C231.04 189.75 231.16 186.17 230.85 182.6C230.37 176.99 230.18 171.38 230.19 165.75C230.19 163.83 227.22 163.83 227.21 165.75L227.23 165.76Z" fill="#363636"/>
<path d="M253.37 166.83C254.57 166.44 255.8 166.45 256.94 167.01C258.66 167.84 260.17 165.28 258.44 164.44C256.59 163.54 254.55 163.32 252.57 163.96C250.76 164.55 251.53 167.42 253.36 166.83H253.37Z" fill="#363636"/>
<path d="M256.03 189.69C258.74 188.13 260.98 185.97 262.68 183.35C263.73 181.74 261.15 180.25 260.11 181.85C258.68 184.05 256.79 185.81 254.52 187.12C252.86 188.08 254.36 190.65 256.02 189.69H256.03Z" fill="#363636"/>
<path d="M233.26 120.9C228.72 123.91 222.89 131.75 230.04 134.75L232.32 135.68L233.35 142.25C233 143.02 231.3 143.89 230.76 144.62C230.13 145.47 229.66 146.36 229.6 147.45C229.53 148.66 230.04 149.72 230.73 150.69C232.99 153.85 235.12 154.38 234.55 159.49C234.34 161.39 237.32 161.38 237.53 159.49C238.02 155.11 237.02 153.88 234.77 150.5C234.02 149.37 232.82 147.5 233.64 145.91C234.04 145.15 235.3 144.57 235.89 143.94C236.81 142.96 237.54 141.97 237.8 140.6C238.28 138.11 237.01 135.61 235.15 134.03C233.97 133.03 231.89 132.82 230.85 131.87C227.91 129.19 232.5 124.97 234.79 123.46C236.38 122.41 234.89 119.83 233.29 120.89L233.26 120.9Z" fill="#363636"/>
<path d="M245.73 136.69C242.49 139.71 237.08 145.27 239.9 150.22C240.26 150.85 240.77 151.36 241.35 151.81C242.05 152.27 242.79 152.67 243.56 153.01C244.59 154.58 244.43 155.6 243.07 156.09C241.55 158.16 240.44 158.33 240.83 161.07C241.1 162.96 243.97 162.16 243.7 160.28C243.53 159.08 247.07 157.13 247.62 155.82C248.11 154.67 248 153.56 247.37 152.46C246.15 150.32 242.77 150.31 242.23 147.62C241.56 144.25 245.65 140.84 247.84 138.8C249.25 137.49 247.14 135.39 245.74 136.7L245.73 136.69Z" fill="#363636"/>
<path d="M210.31 131.46C209.84 155.46 209.36 179.45 208.89 203.45L209.98 202.01C174.74 208.48 138.86 210.42 103.13 207.87L104.62 209.36C103.66 196.83 102.71 184.3 101.75 171.77C101.3 165.83 100.84 159.9 100.39 153.96C99.9599 148.27 100.14 142.17 98.2799 136.73L96.8399 138.61C135.33 138.46 173.79 136.45 212.08 132.58C213.97 132.39 213.99 129.41 212.08 129.6C173.78 133.47 135.33 135.48 96.8399 135.63C95.9199 135.63 95.0899 136.59 95.3999 137.51C97.3399 143.21 97.0999 149.95 97.5499 155.93C97.9999 161.91 98.4599 167.8 98.9099 173.74C99.8199 185.61 100.72 197.48 101.63 209.35C101.69 210.2 102.26 210.78 103.12 210.84C139.12 213.41 175.26 211.39 210.76 204.87C211.4 204.75 211.84 204.05 211.85 203.43C212.32 179.43 212.8 155.44 213.27 131.44C213.31 129.52 210.33 129.52 210.29 131.44L210.31 131.46Z" fill="#363636"/>
<path d="M160.35 161.72C157.48 161.98 155 161.44 152.17 161.13C150.4 160.93 148.9 161.16 147.45 162.29C144.69 164.46 144.33 168.24 144.77 171.48C145.24 174.92 146.81 179.87 149.94 181.82C151.24 182.63 152.45 182.62 153.9 182.2C154.59 182 155.2 181.56 155.88 181.35C157.38 180.87 157.88 181.18 159.56 181.46C162.44 181.94 164.63 180.77 165.34 177.7C165.64 176.4 165.89 174.37 165.16 173.13C164.9 172.68 164.72 172.49 164.3 172.21C164.06 172.05 161.96 171.81 162 171.85L161.73 169.6C162.49 169.06 163.24 168.53 163.99 167.98C164.45 167.58 164.94 167.19 165.28 166.67C165.91 165.7 166.15 164.45 165.59 163.38C164.13 160.58 158.87 160.46 156.41 161.42L157.56 164.14C159.11 163.11 160.93 163.42 162.11 164.85C163.29 166.28 165.43 164.21 164.21 162.75C162.13 160.23 158.76 159.78 156.05 161.58C154.73 162.46 155.53 164.95 157.2 164.3C158.56 163.77 163.44 163.17 161.61 166.05C161.51 166.21 159.78 167.34 159.63 167.5C158.43 168.71 157.66 170.1 157.96 171.83C158.16 173.01 158.82 174.04 159.92 174.57C160.45 174.82 161.69 174.64 162.01 174.83C163.66 175.84 161.62 178.09 159.78 178.31C159.3 178.37 158.2 177.81 157.6 177.81C156.91 177.81 156.2 178.07 155.56 178.27C153.27 179.01 152.76 180.49 150.22 177.75C149.37 176.83 148.77 175.11 148.4 174.01C147.1 170.12 146.76 163.46 152.66 164.26C155.29 164.62 157.68 164.94 160.36 164.69C162.25 164.52 162.27 161.54 160.36 161.71L160.35 161.72Z" fill="#363636"/>
<path d="M156.1 157C155.15 156.77 155.37 155.54 155.81 154.93C156.43 154.05 157.46 153.52 158.37 152.99L156.18 152.1C156.84 154.06 157.78 156.6 155.86 158.15C154.37 159.35 156.49 161.45 157.96 160.25C160.75 157.99 160.05 154.27 159.05 151.3C158.74 150.39 157.74 149.91 156.86 150.41C154.96 151.5 152.9 152.88 152.52 155.21C152.19 157.23 153.25 159.35 155.31 159.86C157.17 160.32 157.96 157.45 156.1 156.99V157Z" fill="#363636"/>
<path d="M212.8 178.23H227.87C229.79 178.23 229.79 175.25 227.87 175.25H212.8C210.88 175.25 210.88 178.23 212.8 178.23Z" fill="#363636"/>
<path d="M269.64 177.91C276.55 177.91 283.46 177.91 290.37 177.91C292.29 177.91 292.29 174.93 290.37 174.93C283.46 174.93 276.55 174.93 269.64 174.93C267.72 174.93 267.72 177.91 269.64 177.91Z" fill="#363636"/>
<path d="M92.22 175.09C61.99 172.48 31.6 177.02 1.41995 173.43C-0.480049 173.2 -0.460049 176.18 1.41995 176.41C31.6 180 61.99 175.46 92.22 178.07C94.13 178.23 94.12 175.26 92.22 175.09Z" fill="#363636"/>
<path d="M291.45 177.87C305.98 179.04 320.53 179.01 335.06 177.78C336.95 177.62 336.97 174.64 335.06 174.8C320.53 176.03 305.99 176.05 291.45 174.89C289.54 174.74 289.55 177.71 291.45 177.87Z" fill="#363636"/>
<path d="M92.63 177.02C94.64 180.36 96.8 183.6 99.13 186.73C100.26 188.25 102.84 186.77 101.7 185.23C99.37 182.1 97.21 178.87 95.2 175.52C94.22 173.88 91.64 175.37 92.63 177.02Z" fill="#363636"/>
</g>
<defs>
<clipPath id="clip0_126_25">
<rect width="336.48" height="211.93" fill="white"/>
</clipPath>
</defs>
</svg>
