<svg width="128" height="128" viewBox="0 0 128 128" fill="none" xmlns="http://www.w3.org/2000/svg">
<path d="M22.667 1.60001H105.333C117.867 1.60001 128 11.733 128 24.267V103.733C128 116.267 117.867 126.4 105.333 126.4H22.667C10.133 126.4 0 116.267 0 103.733V24.267C0 11.733 10.133 1.60001 22.667 1.60001Z" fill="#001E36"/>
<path d="M45.867 33.333C44.267 33.333 42.667 33.333 41.014 33.387C39.36 33.44 37.813 33.44 36.373 33.494C34.933 33.547 33.6 33.547 32.32 33.6C31.093 33.653 30.24 33.653 29.333 33.653C28.96 33.653 28.8 33.866 28.8 34.24V89.12C28.8 89.6 29.013 89.814 29.44 89.814H39.787C40.16 89.76 40.427 89.44 40.373 89.067V71.947C41.386 71.947 42.133 71.947 42.667 72C43.2 72.053 44.053 72.053 45.333 72.053C49.707 72.053 53.707 71.573 57.333 70.24C60.8 68.96 63.787 66.72 65.92 63.733C68.0533 60.7463 69.12 56.9597 69.12 52.373C69.12 49.973 68.694 47.68 67.894 45.44C67.0463 43.1579 65.7184 41.0845 64 39.36C61.9718 37.3896 59.5304 35.8955 56.853 34.986C53.866 33.866 50.24 33.333 45.867 33.333ZM47.057 43.838C48.957 43.874 50.807 44.206 52.533 44.906C54.08 45.493 55.36 46.56 56.267 47.946C57.1176 49.3804 57.5431 51.027 57.494 52.694C57.494 55.04 56.96 56.854 55.84 58.187C54.666 59.52 53.173 60.534 51.467 61.014C49.493 61.654 47.413 61.973 45.333 61.973H42.506C41.866 61.973 41.174 61.92 40.427 61.867V43.947C40.8 43.893 41.547 43.84 42.614 43.894C43.627 43.84 44.853 43.84 46.24 43.84C46.5133 43.8333 46.7857 43.8327 47.057 43.838ZM91.787 46.561C88 46.561 84.853 47.147 82.347 48.427C80.054 49.494 78.08 51.2 76.747 53.333C75.574 55.307 74.933 57.493 74.933 59.787C74.8874 61.6738 75.3089 63.5425 76.16 65.227C77.1574 67.0207 78.5424 68.5693 80.214 69.76C82.5601 71.3647 85.106 72.6556 87.787 73.6C90.4 74.613 92.16 75.413 93.014 76.106C93.867 76.8 94.294 77.493 94.294 78.24C94.294 79.2 93.707 80.107 92.854 80.48C91.894 80.96 90.454 81.227 88.427 81.227C86.294 81.227 84.16 80.96 82.133 80.427C79.8056 79.9072 77.5741 79.0255 75.52 77.814C75.36 77.707 75.2 77.654 75.04 77.761C74.88 77.867 74.827 78.08 74.827 78.24V87.52C74.774 87.947 75.04 88.32 75.414 88.533C77.1435 89.341 78.9729 89.915 80.854 90.24C83.254 90.72 85.653 90.933 88.106 90.933C91.946 90.933 95.147 90.347 97.76 89.227C100.16 88.267 102.24 86.614 103.733 84.48C105.131 82.3821 105.857 79.9078 105.813 77.387C105.866 75.4827 105.444 73.5952 104.587 71.894C103.573 70.08 102.133 68.587 100.373 67.467C97.7982 65.8501 95.0415 64.543 92.16 63.573C90.8732 63.0404 89.6097 62.4532 88.373 61.813C87.68 61.44 87.04 60.96 86.56 60.373C86.24 59.946 86.027 59.467 86.027 58.987C86.027 58.507 86.187 57.974 86.453 57.547C86.827 57.014 87.413 56.64 88.106 56.48C89.12 56.214 90.24 56.053 91.306 56.106C93.333 56.106 95.306 56.373 97.28 56.8C99.094 57.173 100.8 57.76 102.4 58.614C102.613 58.72 102.88 58.72 103.36 58.614C103.443 58.5522 103.511 58.4717 103.557 58.3789C103.604 58.2861 103.628 58.1837 103.627 58.08V49.387C103.627 49.173 103.573 48.96 103.52 48.747C103.413 48.534 103.2 48.32 102.987 48.267C101.516 47.6658 99.9747 47.2535 98.4 47.04C96.2101 46.7211 94 46.5617 91.787 46.561Z" fill="#31A8FF"/>
</svg>
