<svg width="128" height="128" viewBox="0 0 128 128" fill="none" xmlns="http://www.w3.org/2000/svg">
<g clip-path="url(#clip0_106_30)">
<path d="M22.6665 0H105.334C117.867 0 128 10.6428 128 23.8056V107.266C128 120.429 117.867 131.072 105.334 131.072H22.6665C10.1335 131.072 0 120.429 0 107.266V23.8056C0 10.6428 10.1335 0 22.6665 0Z" fill="#00005B"/>
<path d="M30.3999 89.6205V33.4234C30.3999 33.0409 30.5599 32.8228 30.9334 32.8228L31.7074 32.8213L32.3064 32.8161L32.7289 32.808L33.1789 32.7962L33.6624 32.7788L33.9199 32.768C34.3999 32.7475 34.8874 32.7347 35.3849 32.724L36.9124 32.6912C37.0861 32.6871 37.2612 32.6823 37.4379 32.6769L37.9729 32.659C38.4529 32.6412 38.9449 32.6276 39.4489 32.618L40.9954 32.5898L42.0659 32.5658L42.6134 32.5494C43.7154 32.5136 44.7939 32.5013 45.8644 32.4972L47.4664 32.4951C51.8399 32.4951 55.4664 33.0409 58.4534 34.1878C61.1306 35.119 63.5718 36.6488 65.5999 38.6663C67.3181 40.4322 68.6459 42.5553 69.4934 44.8922C70.2934 47.1859 70.7199 49.5345 70.7199 51.9921C70.7199 56.6888 69.6532 60.5664 67.5199 63.6247C65.3864 66.6829 62.3999 68.9767 58.9334 70.2874C55.4274 71.6073 51.5729 72.1101 47.3694 72.1424H45.8449L45.2514 72.1362L44.8709 72.127L44.6469 72.1173L44.4459 72.105L44.2664 72.0896C44.1513 72.0782 44.0359 72.0693 43.9204 72.063L43.6604 72.0512L43.3754 72.0435L42.8999 72.0369L41.9734 72.0348V89.5657C42.0264 89.9482 41.7599 90.2759 41.3864 90.3306H31.0399C30.6134 90.3306 30.3999 90.112 30.3999 89.6205ZM42.0264 43.3628V61.7129L42.6534 61.759C43.1369 61.7969 43.6215 61.8181 44.1064 61.8225H46.9334C49.0134 61.8225 51.0934 61.4948 53.0664 60.8394C54.7734 60.3479 56.2664 59.3101 57.4399 57.9446C58.5599 56.5796 59.0934 54.7226 59.0934 52.3198C59.1435 50.613 58.7179 48.927 57.8664 47.4588C56.9979 46.0984 55.7859 45.0386 54.3254 44.4237L54.1334 44.3459C52.1599 43.5267 50.0264 43.199 47.8399 43.2538L46.6069 43.2553L46.0274 43.2589L45.4739 43.2666L44.9484 43.2789C44.6921 43.2857 44.4471 43.2956 44.2134 43.3086C44.0988 43.3027 43.9841 43.2979 43.8694 43.2942L43.5499 43.2871L43.3999 43.286L43.1169 43.2876L42.8599 43.2947L42.7409 43.2999L42.5224 43.3127L42.3304 43.328L42.2439 43.3362L42.0924 43.3541L42.0264 43.3628ZM78.1864 46.5306H87.5199C88.0234 46.5306 88.4324 46.8716 88.6109 47.3237L88.6399 47.4046C88.7999 47.8413 88.9064 48.278 88.9599 48.7695C89.0664 49.3159 89.1734 49.9164 89.2264 50.4627L89.2714 50.9911C89.3064 51.4422 89.3334 51.9219 89.3334 52.4288C90.8609 50.6028 92.6926 49.0688 94.7434 47.8981L95.0399 47.7322C97.4934 46.3119 100.32 45.6023 103.146 45.6023C103.52 45.5475 103.84 45.8204 103.893 46.2029V57.0711C103.893 57.5079 103.626 57.6717 103.04 57.6717C101.248 57.6205 99.4099 57.7603 97.6549 58.134L97.2799 58.218C95.7332 58.5457 94.2399 59.0372 92.7999 59.6926C91.7864 60.1841 90.8264 60.8394 90.0799 61.7129V89.5657C90.0799 90.112 89.8664 90.3306 89.3864 90.3306H78.8799C78.4534 90.3849 78.0799 90.112 78.0264 89.6753V59.201C78.0264 57.8903 78.0264 56.5248 77.9734 55.105L77.9414 54.0401L77.8984 51.9102C77.8904 51.5552 77.8797 51.2002 77.8664 50.8452C77.8664 49.5888 77.7599 48.3876 77.6534 47.1312C77.5999 46.8583 77.7599 46.5854 78.0264 46.5306C78.0264 46.484 78.1049 46.4773 78.1609 46.5101L78.1864 46.5306Z" fill="#9999FF"/>
</g>
<defs>
<clipPath id="clip0_106_30">
<rect width="128" height="128" fill="white"/>
</clipPath>
</defs>
</svg>
