<?xml version="1.0" encoding="UTF-8"?><svg id="Lag_1" xmlns="http://www.w3.org/2000/svg" width="36.96" height="31.02" viewBox="0 0 36.96 31.02"><defs><style>.cls-1{fill:#000;stroke-width:0px;}</style></defs><path class="cls-1" d="M2.6,8.04c8.64,7.21,16.94,14.81,24.89,22.78.43.43,1.35.14,1.28-.53-.49-5.02-1.02-10.03-1.6-15.04-.29-2.54-.6-5.08-.92-7.62-.14-1.15-.29-2.29-.44-3.44-.12-.92-.17-1.92-.55-2.78-1.9-4.27-6.43,2.4-7.76,3.94-2.91,3.37-5.69,6.86-8.35,10.43C5.94,20.08,2.93,24.52.1,29.07c-.32.52.22,1.35.85,1.1,11.83-4.65,23.66-9.29,35.48-13.94.67-.26.75-1.21,0-1.45C25.63,11.42,14.73,8.12,3.56,6.22c-.94-.16-1.35,1.29-.4,1.45,11.17,1.89,22.07,5.2,32.87,8.56v-1.45C24.2,19.43,12.37,24.08.54,28.73l.85,1.1c4.36-7.01,9.15-13.75,14.4-20.13,1.24-1.51,2.51-3.01,3.8-4.48.64-.73,1.29-1.46,1.95-2.19.28-.3.55-.69.87-.94.27-.2.96-.57,1.33-.37.15.08.24.54.28.7.58,2.02.62,4.35.87,6.44s.52,4.26.77,6.4c.58,5.01,1.11,10.02,1.6,15.04l1.28-.53C20.6,21.79,12.3,14.19,3.66,6.98c-.74-.61-1.8.44-1.06,1.06h0Z"/></svg>