<svg width="128" height="128" viewBox="0 0 128 128" fill="none" xmlns="http://www.w3.org/2000/svg">
<g clip-path="url(#clip0_106_39)">
<path d="M98 0H30C13.4315 0 0 13.4315 0 30V98C0 114.569 13.4315 128 30 128H98C114.569 128 128 114.569 128 98V30C128 13.4315 114.569 0 98 0Z" fill="#F4F2ED"/>
<path d="M16.8579 50.1041C16.8579 50.1041 14.4904 48.3976 17.3314 46.1191L23.9494 40.2011C23.9494 40.2011 25.8434 38.2086 27.8454 39.9446L88.9199 86.1841V108.357C88.9199 108.357 88.8904 111.839 84.4219 111.454L16.8579 50.1041Z" fill="#2489CA"/>
<path d="M32.6 64.396L16.858 78.7075C16.858 78.7075 15.24 79.911 16.858 82.0615L24.1665 88.709C24.1665 88.709 25.9025 90.5735 28.467 88.4525L45.156 75.798L32.6 64.396Z" fill="#1070B3"/>
<path d="M60.237 64.5145L89.1075 42.4695L88.92 20.415C88.92 20.415 87.687 15.6015 83.574 18.107L45.156 53.0725L60.237 64.5145Z" fill="#0877B9"/>
<path d="M84.422 111.484C86.099 113.2 88.131 112.638 88.131 112.638L110.629 101.552C113.509 99.5886 113.105 97.1526 113.105 97.1526V30.9491C113.105 28.0391 110.126 27.0336 110.126 27.0336L90.6265 17.6336C86.3655 15.0001 83.574 18.1071 83.574 18.1071C83.574 18.1071 87.164 15.5231 88.92 20.4151V107.953C88.9223 108.55 88.7909 109.14 88.5355 109.679C88.0225 110.715 86.908 111.681 84.235 111.277L84.422 111.484Z" fill="#3C99D4"/>
</g>
<defs>
<clipPath id="clip0_106_39">
<rect width="128" height="128" fill="white"/>
</clipPath>
</defs>
</svg>
