<svg width="128" height="128" viewBox="0 0 128 128" fill="none" xmlns="http://www.w3.org/2000/svg">
<path d="M98 0H30C13.4315 0 0 13.4315 0 30V98C0 114.569 13.4315 128 30 128H98C114.569 128 128 114.569 128 98V30C128 13.4315 114.569 0 98 0Z" fill="#0073AA"/>
<path d="M21.107 63.997C21.107 80.9745 30.9735 95.6465 45.2805 102.6L24.8205 46.5415C22.3685 52.034 21.1031 57.982 21.107 63.997ZM92.954 61.8325C92.954 56.532 91.05 52.861 89.417 50.0035C87.2425 46.4705 85.2045 43.4785 85.2045 39.9455C85.2045 36.0025 88.195 32.3325 92.407 32.3325C92.5975 32.3325 92.7775 32.356 92.963 32.3665C85.332 25.3755 75.1655 21.107 63.9985 21.107C49.0145 21.107 35.831 28.795 28.162 40.44C29.168 40.47 30.1165 40.4915 30.922 40.4915C35.4085 40.4915 42.353 39.9465 42.353 39.9465C44.665 39.8105 44.938 43.2065 42.628 43.48C42.628 43.48 40.3045 43.7535 37.719 43.889L53.338 90.348L62.7245 62.1965L56.042 43.8875C53.7325 43.752 51.5445 43.4785 51.5445 43.4785C49.233 43.343 49.504 39.809 51.8155 39.9455C51.8155 39.9455 58.8985 40.4895 63.113 40.4895C67.599 40.4895 74.544 39.9455 74.544 39.9455C76.858 39.809 77.1295 43.205 74.819 43.4785C74.819 43.4785 72.4905 43.752 69.91 43.8875L85.4105 89.9945L89.6885 75.6985C91.543 69.7655 92.954 65.5045 92.954 61.8325Z" fill="white"/>
<path d="M64.7515 67.749L51.8825 105.144C55.817 106.303 59.8974 106.891 63.999 106.892C68.8501 106.893 73.6662 106.071 78.242 104.46C78.123 104.272 78.021 104.075 77.937 103.869L64.7515 67.749ZM101.635 43.419C101.829 44.8809 101.926 46.3542 101.924 47.829C101.924 52.1815 101.111 57.0745 98.662 63.1925L85.5605 101.072C98.312 93.636 106.889 79.8215 106.889 63.998C106.89 56.5405 104.985 49.528 101.635 43.419Z" fill="white"/>
<path d="M63.999 14C36.43 14 14 36.4285 14 63.997C14 91.569 36.43 113.996 63.999 113.996C91.5665 113.996 114 91.569 114 63.997C113.999 36.4285 91.5665 14 63.999 14ZM63.999 111.705C37.694 111.705 16.2925 90.303 16.2925 63.997C16.2925 37.6925 37.6935 16.2925 63.999 16.2925C90.3025 16.2925 111.702 37.6925 111.702 63.997C111.702 90.303 90.3025 111.705 63.999 111.705Z" fill="white"/>
</svg>
