<?xml version="1.0" encoding="UTF-8"?><svg id="Lag_1" xmlns="http://www.w3.org/2000/svg" width="40.44" height="42.88" viewBox="0 0 40.44 42.88"><defs><style>.cls-1{fill:#000;stroke-width:0px;}</style></defs><g id="work"><path class="cls-1" d="M27.56,3.57c-7.79,6.88-14.57,14.85-20.13,23.63-.78,1.23,1.17,2.36,1.94,1.14,5.46-8.63,12.13-16.42,19.78-23.18,1.09-.96-.51-2.55-1.59-1.59h0Z"/><path class="cls-1" d="M6.45,29.06c.57,3.03,2.45,5.62,5.11,7.18.46.27.98.15,1.36-.18,9.73-8.42,18.83-17.56,27.22-27.32.63-.74.22-1.89-.8-1.92-1.64-.06-3.31-.28-4.84-.89-1.14-.46-2.88-1.45-3.13-2.81-.31-1.72,3.36-.32,4.09.16,1.46.96,2.49,2.51,2.61,4.27.09,1.44,2.34,1.45,2.25,0-.17-2.63-1.62-4.92-3.86-6.3-1.76-1.08-5.67-2.15-7.12-.03s1.03,4.86,2.63,5.92c2.14,1.42,4.86,1.85,7.38,1.94l-.8-1.92c-8.39,9.76-17.48,18.9-27.22,27.32l1.36-.18c-2.19-1.28-3.6-3.35-4.07-5.83-.27-1.42-2.44-.82-2.17.6h0Z"/><path class="cls-1" d="M5.62,28.64C3.5,32.79,1.64,37.07.06,41.45c-.29.8.6,1.64,1.38,1.38,4.15-1.34,8.09-3.28,11.67-5.77.5-.35.73-.99.4-1.54-.29-.49-1.04-.75-1.54-.4-3.43,2.38-7.16,4.25-11.13,5.54l1.38,1.38c1.52-4.2,3.3-8.3,5.34-12.27.66-1.29-1.28-2.43-1.94-1.14h0Z"/><path class="cls-1" d="M2.47,39.33c.27,0,.54-.01.81.03l-.3-.04c.16.02.32.06.47.13l-.27-.11c.1.04.19.1.28.16l-.23-.18c.08.06.15.13.21.21l-.18-.23c.05.07.1.14.13.22l-.11-.27c.03.07.05.14.06.22l-.04-.3c0,.07,0,.13,0,.2l.04-.3c0,.06-.02.11-.04.16l.11-.27c-.02.05-.05.1-.08.14l.18-.23s-.08.09-.13.13l.23-.18c-.05.04-.1.07-.16.09l.27-.11c-.05.02-.1.03-.15.04l.3-.04c-.05,0-.1,0-.15,0l.3.04s-.07-.02-.11-.03l.27.11s-.07-.03-.1-.05l.23.18h-.02c-.1-.12-.22-.2-.36-.25-.13-.07-.28-.1-.43-.1-.28,0-.61.12-.8.33s-.34.5-.33.8c.01.28.1.62.33.8.11.09.21.19.34.25.26.12.41.16.7.18.14.01.29-.02.43-.04.1-.02.19-.06.29-.1.51-.21.9-.63,1.05-1.16,0-.03.01-.06.02-.09.02-.12.04-.25.04-.37,0-.16-.02-.33-.06-.48s-.1-.29-.17-.43c-.03-.07-.07-.13-.12-.2-.09-.12-.18-.25-.29-.36s-.25-.21-.37-.3c-.19-.14-.43-.23-.66-.3-.27-.08-.55-.11-.83-.13-.2-.01-.4,0-.6,0-.29,0-.59.12-.8.33-.2.2-.34.52-.33.8s.11.59.33.8.49.34.8.33h0Z"/><path class="cls-1" d="M9.04,30.63c3.77-4.27,7.54-8.55,11.33-12.82s7.32-8.1,11.4-11.73c.72-.64-.34-1.7-1.06-1.06-4.08,3.62-7.78,7.65-11.4,11.73s-7.55,8.54-11.33,12.82c-.64.72.42,1.79,1.06,1.06h0Z"/><path class="cls-1" d="M11.56,33.15c7.89-8.22,15.5-16.7,22.83-25.44.62-.74-.44-1.8-1.06-1.06-7.32,8.73-14.94,17.22-22.83,25.44-.67.7.39,1.76,1.06,1.06h0Z"/></g></svg>